<svg width="219" height="180" viewBox="0 0 219 180" fill="none" xmlns="http://www.w3.org/2000/svg">
<rect opacity="0.05" y="18.875" width="219" height="141.25" rx="6" fill="#EE0033"/>
<path d="M56.9166 90.4218C57.0559 89.0613 58.5995 88.5322 59.4846 88.6776C59.4846 88.6776 61.3227 89.1656 61.1387 89.7241C61.017 90.0934 59.9581 89.8497 59.6013 89.7562C60.0399 89.8829 60.8531 90.1867 61.1387 90.7271C61.5304 91.4683 61.3998 91.9916 60.3987 93.8666C58.9188 94.8696 58.6912 94.1527 57.7871 93.8666C56.133 93.3434 56.7424 92.1224 56.9166 90.4218Z" fill="#FBA8A8"/>
<path d="M59.8676 94.9849C60.6495 93.1911 59.2694 93.2785 58.3322 92.8809C56.1805 91.9684 54.616 94.9713 52.7212 98.1568C50.9148 101.194 50.8337 102.667 50.0127 104.983C50.5707 105.511 50.8363 107.294 51.9723 107.465C53.3923 107.678 55.7216 105.861 55.9454 104.41C56.1691 102.959 58.8903 97.2272 59.8676 94.9849Z" fill="#A08BF1"/>
<path d="M29.4255 165.158C29.4255 165.158 32.0856 164.252 34.4383 163.473C35.8298 163.012 36.4452 162.538 37.797 162.978C39.8581 163.649 38.6862 166.114 38.6862 166.114C38.6862 166.114 33.9582 171.029 32.0696 170.706C30.181 170.383 29.6325 170.162 29.4255 169.082C28.9867 166.793 29.4255 165.158 29.4255 165.158Z" fill="#607DD5"/>
<path d="M43.9461 172.498C43.9461 172.498 46.7385 172.187 49.2034 171.934C50.6613 171.784 51.3642 171.453 52.5898 172.175C54.4583 173.274 52.7841 175.429 52.7841 175.429C52.7841 175.429 47.1105 179.21 45.3357 178.487C43.5608 177.764 43.0727 177.43 43.1026 176.331C43.166 174.001 43.9461 172.498 43.9461 172.498Z" fill="#607DD5"/>
<ellipse cx="42.7705" cy="74.5609" rx="6.77347" ry="6.78547" fill="#FBA8A8"/>
<path d="M46.9546 74.0206C49.6097 70.2522 47.9714 68.3165 46.9546 67.9091C46.9546 67.5424 44.4793 65.2765 42.949 65.1213C40.5872 64.8817 38.345 64.7284 36.6463 66.8632C35.2117 68.666 34.2366 71.3279 34.6424 73.5049C35.6076 78.6819 35.3146 77.971 38.1479 78.7516C40.8766 79.5033 41.9203 81.1656 46.9546 74.0206Z" fill="#607DD4"/>
<path d="M50.5881 70.9574C50.1976 73.5975 50.0707 74.2441 49.542 74.2441C49.542 74.2441 48.8118 71.6866 47.1363 69.7741C45.3351 67.7181 39.7467 67.2413 39.7467 67.2413C40.1127 66.9154 41.7676 65.4226 42.2557 65.1292C42.8658 64.7625 45.8806 64.6209 47.4973 65.7171C48.9995 66.7356 51.0761 67.6572 50.5881 70.9574Z" fill="#607DD4"/>
<path d="M44.1136 76.101C44.1136 76.8973 44.7716 77.1549 45.5664 77.1549C46.3613 77.1549 46.7151 76.4983 46.7151 75.7021C46.7151 74.9058 45.9354 74.2441 45.1406 74.2441C44.3458 74.2441 44.1136 75.3048 44.1136 76.101Z" fill="#FBA8A8"/>
<path d="M38.7128 79.123L43.7642 80.7588L42.2698 85.2061L37.2184 83.5703L38.7128 79.123Z" fill="#FBA8A8"/>
<path d="M43.6249 170.402L48.9335 170.363L49.5464 172.59L50.3742 173.477C50.3742 173.477 47.2897 175.764 46.1937 175.758C45.1493 175.753 43.6026 175.095 43.6026 175.095L43.6249 170.402Z" fill="#AED5F2"/>
<path d="M29.417 162.146L34.7256 162.107L35.3385 164.334L36.1663 165.222C36.1663 165.222 33.0818 167.508 31.9858 167.502C30.9414 167.497 29.3947 166.839 29.3947 166.839L29.417 162.146Z" fill="#AED5F2"/>
<path d="M39.3295 80.4192C37.8102 79.3031 37.4204 81.2121 36.0698 81.6772L43.412 85.2466C44.2624 82.6478 40.8488 81.5353 39.3295 80.4192Z" fill="#5279C8"/>
<path d="M36.6553 87.1581C36.8056 84.7957 37.9297 82.8148 35.7396 81.696C31.43 79.4945 28.7037 87.6118 27.6708 91.8522C26.6861 95.8948 25.6162 99.3768 29.4289 101.151C31.2684 102.006 32.9724 101.88 34.7889 101.995C37.0594 102.14 36.6435 101.428 36.1466 99.5536C35.6497 97.6789 36.4673 90.1111 36.6553 87.1581Z" fill="#9C8AF0"/>
<path d="M30.7151 84.9498C31.7097 81.0473 34.5832 80.9018 35.8955 81.3168C39.4873 83.1159 46.4541 86.3342 47.4998 88.1673C48.3286 89.6204 46.2565 103.196 46.7745 107.97C47.2925 112.745 47.701 114.67 46.7745 115.672C45.848 116.674 44.2798 116.195 44.2798 116.195C41.6841 116.195 39.1703 114.257 35.8893 113.149C32.8199 112.112 31.6888 110.77 29.9121 110.067C28.8327 109.641 29.2683 106.358 29.3511 105.611C29.4548 104.677 29.4718 89.8279 30.7151 84.9498Z" fill="url(#paint0_linear_5206_24308)"/>
<path d="M48.0159 88.5052C46.7367 86.2445 43.6055 85.9537 42.1997 86.0908C42.0013 89.5458 41.854 93.8941 43.533 98.4291C45.1336 102.753 45.1123 105.464 48.7134 106.758C50.672 107.461 52.5037 107.787 54.0414 106.758C55.9635 105.471 55.1157 101.823 53.6023 100.414C52.0888 99.0055 49.6148 91.331 48.0159 88.5052Z" fill="#A08BF1"/>
<g opacity="0.5" filter="url(#filter0_f_5206_24308)">
<ellipse cx="38.165" cy="15.2574" rx="38.165" ry="15.2574" transform="matrix(0.865642 0.500664 0.499336 -0.866408 79.3177 109.1)" fill="url(#paint1_radial_5206_24308)"/>
</g>
<path d="M69.4945 8.64405C72.5283 4.66415 78.037 3.53967 82.388 6.01214L177.214 59.8981C180.341 61.6753 182.273 64.9953 182.273 68.5924V125.181C182.273 129.752 179.173 133.741 174.744 134.871L170.844 135.865C168.166 136.547 165.326 136.092 162.996 134.605L74.1269 77.9165C71.4076 76.1819 69.692 73.2423 69.5192 70.0215L66.638 16.3228C66.5108 13.9518 67.2313 11.613 68.6708 9.72466L69.4945 8.64405Z" fill="url(#paint2_linear_5206_24308)"/>
<path d="M64.9207 17.3868C64.9207 9.67413 73.2826 4.86474 79.9493 8.74315L172.428 62.5443C175.506 64.3349 177.399 67.6271 177.399 71.1879V125.866C177.399 133.579 169.037 138.388 162.371 134.51L69.8921 80.7084C66.8142 78.9178 64.9207 75.6256 64.9207 72.0647V17.3868Z" fill="url(#paint3_linear_5206_24308)"/>
<g style="mix-blend-mode:multiply">
<path d="M87.9775 40.677C87.9775 38.3632 90.4861 36.9204 92.4861 38.0839L147.848 70.2914C148.771 70.8285 149.339 71.8162 149.339 72.8845V108.395C149.339 110.708 146.83 112.151 144.83 110.988L89.469 78.7803C88.5456 78.2431 87.9775 77.2554 87.9775 76.1872V40.677Z" fill="url(#paint4_linear_5206_24308)"/>
</g>
<path d="M83.2758 35.9661C83.2758 33.6522 85.7844 32.2094 87.7843 33.3729L143.146 65.5804C144.069 66.1176 144.637 67.1053 144.637 68.1735V103.684C144.637 105.998 142.129 107.44 140.129 106.277L84.7672 74.0694C83.8438 73.5322 83.2758 72.5445 83.2758 71.4763V35.9661Z" fill="url(#paint5_linear_5206_24308)"/>
<path d="M134.592 62.1899C134.592 59.8942 137.066 58.4492 139.066 59.5766L145.833 63.3918C146.776 63.9236 147.359 64.9223 147.359 66.0051V77.4408C147.359 79.7366 144.886 81.1816 142.886 80.0541L136.119 76.2389C135.176 75.7072 134.592 74.7084 134.592 73.6256V62.1899Z" fill="url(#paint6_linear_5206_24308)"/>
<path d="M106.333 61.79C106.321 59.9372 105.914 56.2605 107.966 56.9861C110.516 57.8876 110.234 61.2657 110.234 62.9182" stroke="white" stroke-width="2" stroke-linecap="round"/>
<path d="M103.283 59.6191C103.283 58.8449 104.125 58.3644 104.792 58.758L112.581 63.3582C112.886 63.5381 113.073 63.8655 113.073 64.2193V69.3069C113.073 70.0811 112.231 70.5617 111.564 70.168L103.775 65.5678C103.47 65.3879 103.283 65.0605 103.283 64.7068V59.6191Z" fill="white"/>
<path d="M99.1474 71.5531C99.1474 72.9266 98.2973 72.4664 97.6976 72.1498C97.098 71.8331 96.3828 71.1366 96.3828 70.0221C96.3828 68.9075 96.9478 68.5471 97.7723 68.9974C98.5967 69.4478 99.1474 70.1796 99.1474 71.5531Z" fill="white"/>
<path d="M104.464 74.3636C104.464 75.7371 103.614 75.277 103.015 74.9603C102.415 74.6436 101.7 73.9472 101.7 72.8326C101.7 71.7181 102.265 71.3576 103.089 71.808C103.914 72.2583 104.464 72.9901 104.464 74.3636Z" fill="white"/>
<path d="M109.615 77.5316C109.615 78.9051 108.765 78.4449 108.165 78.1283C107.566 77.8116 106.851 77.1151 106.851 76.0006C106.851 74.8861 107.416 74.5256 108.24 74.976C109.064 75.4263 109.615 76.1581 109.615 77.5316Z" fill="white"/>
<path d="M114.711 80.1839C114.711 81.5574 113.861 81.0973 113.261 80.7806C112.661 80.464 111.946 79.7675 111.946 78.6529C111.946 77.5384 112.511 77.1779 113.336 77.6283C114.16 78.0787 114.711 78.8104 114.711 80.1839Z" fill="white"/>
<path d="M119.974 83.4945C119.974 84.868 119.123 84.4078 118.524 84.0912C117.924 83.7745 117.209 83.078 117.209 81.9635C117.209 80.8489 117.774 80.4885 118.598 80.9388C119.423 81.3892 119.974 82.121 119.974 83.4945Z" fill="white"/>
<path d="M27.6432 114.911C28.3701 112.407 29.2936 110.854 30.7483 109.607L38.8661 112.407C38.8661 112.407 36.1977 153.246 35.1161 163.557C34.9669 164.98 32.0222 165.066 30.7483 164.502C28.7396 163.613 29.0247 161.448 28.7413 159.093C27.3505 147.538 27.6431 123.214 27.6431 123.214C27.0605 122.046 26.7727 117.909 27.6432 114.911Z" fill="url(#paint7_linear_5206_24308)"/>
<path d="M33.8646 119.682C34.4641 112.931 35.7278 112.939 36.9793 111.488L46.9792 112.964C46.9792 112.964 52.99 171.799 49.0657 173.476C45.9899 174.79 41.979 171.8 41.9792 168.662C41.9802 155.126 36.9793 125.81 36.9793 125.81C36.2283 124.743 33.6835 121.721 33.8646 119.682Z" fill="url(#paint8_linear_5206_24308)"/>
<path opacity="0.4" d="M61.4476 57.7492H57.2355L52.5496 60.8717C51.8546 61.3358 50.9174 60.84 50.9174 59.9961V57.7492C47.7584 57.7492 45.6523 55.6395 45.6523 52.4748V46.1455C45.6523 42.9809 47.7584 40.8711 50.9174 40.8711H61.4476C64.6067 40.8711 66.7127 42.9809 66.7127 46.1455V52.4748C66.7127 55.6395 64.6067 57.7492 61.4476 57.7492Z" fill="#607DD5"/>
<path d="M56.1825 51.0832C55.7508 51.0832 55.3928 50.7245 55.3928 50.292V50.0706C55.3928 48.8469 56.2878 48.2456 56.6248 48.0135C57.0144 47.7498 57.1407 47.5705 57.1407 47.2962C57.1407 46.7688 56.709 46.3362 56.1825 46.3362C55.656 46.3362 55.2243 46.7688 55.2243 47.2962C55.2243 47.7287 54.8663 48.0874 54.4345 48.0874C54.0028 48.0874 53.6448 47.7287 53.6448 47.2962C53.6448 45.8932 54.782 44.7539 56.1825 44.7539C57.583 44.7539 58.7203 45.8932 58.7203 47.2962C58.7203 48.4988 57.8358 49.1 57.5093 49.3216C57.0987 49.5958 56.9723 49.7752 56.9723 50.0706V50.292C56.9723 50.7351 56.6143 51.0832 56.1825 51.0832Z" fill="#5680F9"/>
<path d="M56.1825 53.7093C55.7402 53.7093 55.3927 53.3506 55.3927 52.9181C55.3927 52.4856 55.7507 52.127 56.1825 52.127C56.6142 52.127 56.9722 52.4856 56.9722 52.9181C56.9722 53.3506 56.6247 53.7093 56.1825 53.7093Z" fill="#5680F9"/>
<path d="M138.568 66.6855L142.512 73.4586" stroke="white" stroke-linecap="round"/>
<path d="M142.547 68.8379L138.497 71.2367" stroke="white" stroke-linecap="round"/>
<defs>
<filter id="filter0_f_5206_24308" x="73.0618" y="78.752" width="93.8235" height="72.4727" filterUnits="userSpaceOnUse" color-interpolation-filters="sRGB">
<feFlood flood-opacity="0" result="BackgroundImageFix"/>
<feBlend mode="normal" in="SourceGraphic" in2="BackgroundImageFix" result="shape"/>
<feGaussianBlur stdDeviation="6.5" result="effect1_foregroundBlur_5206_24308"/>
</filter>
<linearGradient id="paint0_linear_5206_24308" x1="31.3264" y1="81.1582" x2="46.392" y2="116.29" gradientUnits="userSpaceOnUse">
<stop stop-color="#8985E9"/>
<stop offset="1" stop-color="#9F85E9"/>
</linearGradient>
<radialGradient id="paint1_radial_5206_24308" cx="0" cy="0" r="1" gradientUnits="userSpaceOnUse" gradientTransform="translate(38.165 15.2574) rotate(90) scale(15.2574 38.165)">
<stop stop-color="#2F3E66"/>
<stop offset="1" stop-color="#8AA6ED"/>
</radialGradient>
<linearGradient id="paint2_linear_5206_24308" x1="126.034" y1="-2.6628" x2="126.034" y2="140.59" gradientUnits="userSpaceOnUse">
<stop stop-color="#66ACC2"/>
<stop offset="1" stop-color="#51EA8E"/>
</linearGradient>
<linearGradient id="paint3_linear_5206_24308" x1="121.16" y1="0" x2="121.16" y2="143.253" gradientUnits="userSpaceOnUse">
<stop stop-color="#90F0B6"/>
<stop offset="1" stop-color="#90D9F0"/>
</linearGradient>
<linearGradient id="paint4_linear_5206_24308" x1="87.9775" y1="35.4609" x2="149.473" y2="113.505" gradientUnits="userSpaceOnUse">
<stop stop-color="#7980E4"/>
<stop offset="1" stop-color="#B190F6"/>
</linearGradient>
<linearGradient id="paint5_linear_5206_24308" x1="83.2758" y1="30.75" x2="144.771" y2="108.794" gradientUnits="userSpaceOnUse">
<stop stop-color="#7980E4"/>
<stop offset="1" stop-color="#B190F6"/>
</linearGradient>
<linearGradient id="paint6_linear_5206_24308" x1="134.592" y1="57.0547" x2="161.136" y2="90.741" gradientUnits="userSpaceOnUse">
<stop stop-color="#E47979"/>
<stop offset="1" stop-color="#F33A93"/>
</linearGradient>
<linearGradient id="paint7_linear_5206_24308" x1="35.64" y1="110.473" x2="32.9702" y2="164.826" gradientUnits="userSpaceOnUse">
<stop stop-color="#8985E9"/>
<stop offset="0.0001" stop-color="#8985E9"/>
<stop offset="0.296875" stop-color="#736CBF"/>
<stop offset="1" stop-color="#9F85E9"/>
</linearGradient>
<linearGradient id="paint8_linear_5206_24308" x1="39.8496" y1="111.168" x2="49.3382" y2="173.56" gradientUnits="userSpaceOnUse">
<stop stop-color="#8985E9"/>
<stop offset="0.244792" stop-color="#766ECA"/>
<stop offset="1" stop-color="#9F85E9"/>
</linearGradient>
</defs>
</svg>
