<svg width="843" height="614" viewBox="0 0 843 614" fill="none" xmlns="http://www.w3.org/2000/svg">
<path d="M283.549 39.8697C373.387 -23.337 753.261 -30.4485 736.791 162.246C731.128 228.533 862.665 273.843 840.234 400.054C740.891 581.741 591.623 586.298 591.623 586.298L218.451 578.702C218.451 578.702 0 495.521 0 297.602C0 99.683 193.711 103.076 283.549 39.8697Z" fill="#5680F9" fill-opacity="0.09"/>
<path d="M339.355 92.224C478.803 195.437 728.97 132.676 712.706 283.248C707.111 335.042 796.948 385.268 774.8 483.89C761.662 538.069 549.702 586.304 549.702 586.304H174.204C174.204 586.304 17.47 526.892 17.47 372.242C17.47 217.592 199.91 -10.9889 339.355 92.224Z" fill="#5655D2" fill-opacity="0.11"/>
<path d="M73.767 289.032C73.4515 288.362 73.4073 287.596 73.6435 286.895C73.9189 285.938 74.4075 285.055 75.0727 284.314L80.177 279.069C79.2676 276.725 78.6784 274.269 78.4254 271.767L73.0068 269.456C71.2758 268.563 69.3131 267.553 68.6429 266.393C68.4087 266.016 68.3332 265.562 68.433 265.13L71.2518 252.933C71.3715 252.574 71.5688 252.246 71.8296 251.973C72.0903 251.699 72.4081 251.486 72.7604 251.349C73.7129 250.913 74.757 250.715 75.803 250.771L84.287 251.546C86.4307 248.813 89.0647 246.503 92.0542 244.734L92.0654 237.931C92.1188 236.608 92.2959 235.293 92.5945 234.004C92.9365 232.798 93.4668 232.17 94.2587 232.032L106.584 229.859C107.189 229.793 107.796 229.969 108.271 230.348C108.92 230.823 109.458 231.433 109.848 232.137C110.044 232.477 110.212 232.833 110.351 233.201L113.035 241.573C116.013 242.291 118.855 243.49 121.447 245.123L127.356 242.984C128.617 242.582 129.913 242.299 131.227 242.138C132.478 242.048 133.249 242.331 133.652 243.029L139.91 253.868C140.066 254.212 140.146 254.587 140.141 254.965C140.137 255.342 140.05 255.715 139.885 256.055C139.486 257.024 138.858 257.881 138.055 258.554L133.685 261.94C134.463 264.978 134.725 268.126 134.458 271.251L138.941 273.645C140.496 274.627 142.257 275.74 142.917 276.882C143.057 277.098 143.148 277.341 143.183 277.596C143.218 277.85 143.196 278.109 143.12 278.354L139.252 290.257C139.101 290.604 138.876 290.913 138.592 291.163C138.308 291.413 137.973 291.597 137.61 291.702C136.624 292.054 135.567 292.161 134.53 292.013L124.766 290.253C123.765 291.108 122.705 291.893 121.595 292.602L122.283 299.245C122.368 300.566 122.329 301.892 122.166 303.206C121.952 304.441 121.491 305.121 120.715 305.342L108.685 308.792C108.341 308.859 107.987 308.852 107.646 308.773C107.305 308.693 106.984 308.543 106.705 308.331C105.913 307.789 105.257 307.071 104.79 306.233C104.72 306.111 104.648 305.987 104.587 305.858L100.419 296.399C98.4871 295.976 96.6048 295.353 94.8027 294.538L87.8294 298.231C86.6365 298.805 85.3926 299.266 84.1138 299.607C82.8876 299.871 82.0889 299.696 81.5894 299.063L73.8833 289.2C73.8408 289.146 73.8019 289.09 73.767 289.032ZM114.858 265.762C113.547 263.497 111.391 261.844 108.862 261.166C106.334 260.489 103.641 260.842 101.372 262.148C99.1072 263.46 97.4545 265.616 96.7771 268.144C96.0997 270.672 96.4528 273.366 97.759 275.634C99.0701 277.899 101.226 279.552 103.755 280.229C106.283 280.907 108.976 280.554 111.245 279.248C113.51 277.936 115.163 275.78 115.84 273.251C116.517 270.723 116.164 268.029 114.857 265.761L114.858 265.762Z" fill="#A8B4DE"/>
<path d="M119.926 325.207C119.784 324.906 119.763 324.561 119.868 324.245C119.99 323.815 120.208 323.419 120.506 323.086L122.786 320.731C122.376 319.676 122.108 318.571 121.991 317.445L119.558 316.399C118.806 316.097 118.135 315.623 117.599 315.015C117.494 314.846 117.459 314.642 117.503 314.448L118.751 308.966C118.804 308.805 118.892 308.658 119.008 308.535C119.125 308.413 119.267 308.317 119.425 308.256C119.852 308.061 120.32 307.973 120.788 307.999L124.593 308.358C125.55 307.132 126.729 306.096 128.067 305.303L128.065 302.243C128.088 301.649 128.165 301.057 128.298 300.477C128.45 299.936 128.687 299.654 129.042 299.592L134.565 298.629C134.837 298.6 135.109 298.68 135.322 298.851C135.615 299.066 135.857 299.342 136.033 299.659C136.121 299.813 136.197 299.973 136.26 300.138L137.473 303.907C138.811 304.235 140.087 304.778 141.25 305.516L143.897 304.561C144.462 304.381 145.042 304.255 145.63 304.183C146.191 304.144 146.537 304.272 146.719 304.587L149.538 309.469C149.608 309.624 149.644 309.792 149.643 309.962C149.641 310.132 149.603 310.3 149.53 310.453C149.352 310.888 149.072 311.272 148.712 311.574L146.757 313.092C147.11 314.459 147.232 315.875 147.116 317.282L149.129 318.363C149.817 318.725 150.424 319.221 150.915 319.823C150.978 319.92 151.019 320.03 151.035 320.144C151.051 320.259 151.042 320.375 151.008 320.486L149.29 325.838C149.223 325.993 149.122 326.132 148.995 326.244C148.868 326.356 148.718 326.438 148.555 326.486C148.113 326.642 147.639 326.689 147.175 326.622L142.795 325.817C142.348 326.201 141.874 326.554 141.377 326.871L141.693 329.86C141.733 330.454 141.717 331.05 141.646 331.641C141.551 332.196 141.346 332.502 140.998 332.601L135.609 334.138C135.454 334.167 135.294 334.164 135.141 334.127C134.988 334.09 134.844 334.022 134.719 333.925C134.363 333.679 134.07 333.355 133.86 332.977C133.829 332.923 133.796 332.867 133.769 332.809L131.889 328.548C131.021 328.356 130.176 328.073 129.368 327.705L126.246 329.357C125.712 329.614 125.155 329.82 124.582 329.972C124.033 330.089 123.67 330.011 123.449 329.724L119.983 325.278C119.962 325.256 119.943 325.232 119.926 325.207ZM138.322 314.793C137.737 313.774 136.771 313.029 135.637 312.721C134.502 312.414 133.292 312.568 132.272 313.152C131.256 313.744 130.517 314.714 130.217 315.85C129.916 316.987 130.078 318.196 130.668 319.213C131.254 320.232 132.22 320.977 133.354 321.285C134.488 321.592 135.698 321.438 136.719 320.854C137.735 320.262 138.474 319.291 138.774 318.154C139.075 317.017 138.912 315.808 138.321 314.791L138.322 314.793Z" fill="#2252F1"/>
<path d="M666.607 309.602C665.983 308.276 665.896 306.76 666.364 305.372C666.908 303.477 667.875 301.73 669.192 300.263L679.296 289.88C677.496 285.24 676.33 280.379 675.83 275.427L665.104 270.853C661.678 269.086 657.794 267.081 656.469 264.788C656.005 264.043 655.854 263.144 656.051 262.289L661.628 238.148C661.865 237.438 662.255 236.789 662.772 236.248C663.288 235.706 663.918 235.285 664.615 235.015C666.5 234.151 668.567 233.758 670.638 233.869L687.43 235.403C691.673 229.993 696.886 225.42 702.803 221.917L702.825 208.451C702.931 205.833 703.282 203.23 703.873 200.678C704.551 198.29 705.599 197.049 707.172 196.771L731.571 192.468C732.769 192.337 733.969 192.686 734.911 193.437C736.197 194.378 737.263 195.589 738.035 196.983C738.423 197.658 738.756 198.362 739.03 199.09L744.342 215.661C750.239 217.084 755.864 219.46 760.996 222.696L772.691 218.461C775.188 217.665 777.754 217.105 780.355 216.787C782.831 216.608 784.356 217.169 785.154 218.551L797.54 240.005C797.851 240.686 798.007 241.427 797.999 242.175C797.991 242.923 797.818 243.66 797.492 244.334C796.703 246.251 795.46 247.948 793.869 249.279L785.218 255.983C786.762 261.999 787.281 268.231 786.755 274.419L795.624 279.154C798.702 281.097 802.188 283.299 803.494 285.561C803.771 285.987 803.951 286.469 804.02 286.973C804.09 287.476 804.047 287.989 803.895 288.474L796.239 312.035C795.941 312.721 795.495 313.333 794.934 313.828C794.372 314.322 793.709 314.687 792.99 314.896C791.037 315.592 788.944 315.803 786.891 315.511L767.564 312.026C765.585 313.723 763.489 315.279 761.294 316.685L762.656 329.831C762.824 332.446 762.747 335.071 762.426 337.671C762.001 340.117 761.086 341.463 759.554 341.901L735.741 348.729C735.06 348.862 734.36 348.849 733.684 348.692C733.009 348.535 732.374 348.237 731.822 347.818C730.254 346.745 728.956 345.324 728.031 343.665C727.892 343.424 727.757 343.175 727.631 342.924L719.38 324.198C715.556 323.363 711.83 322.129 708.263 320.517L694.46 327.827C692.099 328.962 689.637 329.874 687.106 330.55C684.679 331.071 683.09 330.729 682.108 329.472L666.855 309.95C666.764 309.84 666.681 309.724 666.607 309.602ZM747.941 263.541C745.345 259.058 741.077 255.786 736.073 254.445C731.069 253.105 725.738 253.804 721.248 256.389C716.765 258.984 713.493 263.252 712.153 268.256C710.812 273.26 711.511 278.592 714.096 283.081C716.691 287.565 720.959 290.836 725.963 292.177C730.967 293.518 736.299 292.819 740.789 290.234C745.272 287.639 748.543 283.371 749.884 278.366C751.225 273.362 750.526 268.031 747.941 263.541Z" fill="#B2C2F6"/>
<path d="M608.315 221.711C607.917 220.866 607.861 219.9 608.159 219.015C608.506 217.807 609.122 216.694 609.961 215.759L616.401 209.142C615.254 206.186 614.511 203.088 614.192 199.934L607.356 197.018C605.173 195.891 602.701 194.62 601.853 193.152C601.557 192.678 601.462 192.105 601.587 191.56L605.139 176.177C605.29 175.724 605.539 175.311 605.868 174.966C606.197 174.621 606.598 174.352 607.042 174.18C608.243 173.63 609.559 173.381 610.878 173.451L621.58 174.43C624.284 170.982 627.607 168.067 631.378 165.835L631.392 157.253C631.46 155.585 631.684 153.926 632.061 152.3C632.494 150.777 633.162 149.987 634.164 149.81L649.709 147.07C650.472 146.987 651.236 147.209 651.836 147.688C652.656 148.288 653.336 149.059 653.827 149.948C654.075 150.378 654.287 150.826 654.462 151.29L657.848 161.851C661.606 162.758 665.191 164.273 668.462 166.335L675.915 163.636C677.506 163.128 679.142 162.77 680.8 162.567C682.378 162.453 683.35 162.811 683.858 163.692L691.752 177.364C691.95 177.798 692.049 178.27 692.044 178.747C692.039 179.224 691.928 179.693 691.721 180.123C691.218 181.345 690.425 182.426 689.412 183.275L683.898 187.547C684.882 191.381 685.213 195.353 684.878 199.297L690.53 202.315C692.491 203.553 694.713 204.956 695.545 206.397C695.722 206.669 695.837 206.976 695.881 207.297C695.925 207.618 695.898 207.945 695.801 208.254L690.923 223.269C690.732 223.706 690.447 224.096 690.089 224.41C689.731 224.724 689.308 224.956 688.85 225.089C687.605 225.532 686.271 225.667 684.963 225.481L672.646 223.261C671.384 224.342 670.049 225.333 668.65 226.229L669.517 234.608C669.624 236.275 669.576 237.948 669.371 239.605C669.1 241.164 668.518 242.02 667.54 242.301L652.364 246.652C651.93 246.736 651.483 246.728 651.053 246.628C650.623 246.528 650.218 246.338 649.866 246.071C648.867 245.388 648.039 244.482 647.45 243.424C647.36 243.269 647.275 243.11 647.193 242.95L641.935 231.016C639.498 230.484 637.124 229.698 634.85 228.671L626.056 233.334C624.551 234.057 622.981 234.639 621.368 235.07C619.821 235.401 618.809 235.184 618.183 234.382L608.463 221.941C608.408 221.868 608.359 221.791 608.315 221.711ZM660.15 192.356C658.495 189.499 655.776 187.414 652.587 186.56C649.397 185.705 646 186.15 643.139 187.798C640.281 189.452 638.197 192.172 637.342 195.361C636.488 198.55 636.933 201.948 638.58 204.809C640.234 207.666 642.954 209.751 646.143 210.606C649.333 211.46 652.731 211.015 655.592 209.368C658.449 207.714 660.534 204.993 661.388 201.804C662.243 198.615 661.797 195.217 660.15 192.356Z" fill="#5477E9"/>
<path d="M112.511 475.04C111.168 474.927 109.919 474.299 109.027 473.288C107.768 471.982 106.822 470.408 106.258 468.684L102.633 455.857C98.108 455.157 93.698 453.85 89.5222 451.971L80.9428 458.414C77.9583 460.331 74.5783 462.503 72.1332 462.503C71.3263 462.53 70.5415 462.237 69.9506 461.687L53.2797 446.141C52.8234 445.625 52.4864 445.016 52.2923 444.355C52.0983 443.695 52.0521 443 52.1572 442.319C52.3364 440.42 52.9739 438.593 54.0152 436.994L62.9632 424.319C60.604 418.449 59.3582 412.191 59.29 405.865L48.5702 399.652C46.5328 398.363 44.6207 396.887 42.8586 395.241C41.2684 393.602 40.7612 392.196 41.2637 390.816L49.0594 369.397C49.5063 368.383 50.3356 367.587 51.3669 367.182C52.709 366.59 54.1638 366.297 55.6304 366.324C56.3464 366.327 57.0611 366.387 57.7674 366.504L73.416 369.894C77.2631 365.85 81.7445 362.461 86.6834 359.86L88.6915 348.588C89.2058 346.233 89.9395 343.93 90.8831 341.712C91.88 339.657 93.028 338.699 94.4959 338.699H117.289C117.975 338.765 118.637 338.981 119.23 339.332C119.822 339.683 120.33 340.16 120.717 340.729C121.881 342.241 122.661 344.012 122.99 345.892L124.352 355.87C129.855 357.407 135.061 359.861 139.749 363.127L147.602 358.238C150.569 356.68 153.925 354.911 156.328 354.911C156.795 354.886 157.262 354.965 157.695 355.141C158.129 355.318 158.518 355.588 158.834 355.932L174.087 372.87C174.496 373.424 174.779 374.06 174.915 374.735C175.051 375.41 175.036 376.107 174.872 376.775C174.528 378.652 173.734 380.417 172.557 381.918L160.889 395.715C161.331 398.073 161.607 400.458 161.716 402.854L172.819 407.819C174.98 408.888 177.037 410.157 178.961 411.609C180.714 413.073 181.365 414.419 181.01 415.843L175.495 437.957C175.288 438.56 174.955 439.112 174.519 439.578C174.084 440.044 173.555 440.413 172.967 440.66C171.391 441.416 169.661 441.797 167.914 441.771C167.658 441.771 167.397 441.764 167.139 441.748L148.422 439.708C145.997 442.37 143.299 444.772 140.374 446.872L139.849 461.234C139.668 463.638 139.262 466.02 138.636 468.348C137.935 470.522 136.928 471.629 135.478 471.834L112.906 475.006C112.776 475.027 112.644 475.038 112.511 475.04ZM113.226 389.041C108.46 389.047 103.89 390.943 100.519 394.313C97.1489 397.684 95.2529 402.253 95.2474 407.02C95.2529 411.787 97.1489 416.356 100.519 419.727C103.89 423.097 108.46 424.993 113.226 424.999C117.993 424.993 122.562 423.097 125.933 419.727C129.303 416.356 131.199 411.787 131.205 407.02C131.2 402.253 129.304 397.683 125.934 394.312C122.563 390.942 117.993 389.046 113.226 389.04V389.041Z" fill="#829CF1"/>
<path d="M422.479 537.392C435.373 537.392 445.825 526.94 445.825 514.046C445.825 501.153 435.373 490.701 422.479 490.701C409.586 490.701 399.134 501.153 399.134 514.046C399.134 526.94 409.586 537.392 422.479 537.392Z" fill="#2A2B58"/>
<path d="M422.48 558.615C425.997 558.615 428.847 555.764 428.847 552.248C428.847 548.732 425.997 545.881 422.48 545.881C418.964 545.881 416.113 548.732 416.113 552.248C416.113 555.764 418.964 558.615 422.48 558.615Z" fill="#2A2B58"/>
<path d="M648.195 217.635H195.348C178.965 217.635 165.684 230.916 165.684 247.3V483.674C165.684 500.058 178.965 513.339 195.348 513.339H648.195C664.579 513.339 677.86 500.058 677.86 483.674V247.3C677.86 230.916 664.579 217.635 648.195 217.635Z" fill="#2A2B58"/>
<path d="M644.202 224.709H199.343C185.442 224.709 174.173 235.978 174.173 249.879V481.095C174.173 494.996 185.442 506.265 199.343 506.265H644.202C658.103 506.265 669.372 494.996 669.372 481.095V249.879C669.372 235.978 658.103 224.709 644.202 224.709Z" fill="#829CF1" fill-opacity="0.18"/>
<g filter="url(#filter0_d_5206_23869)">
<path d="M410.751 419.984C410.751 419.984 319.017 427.02 312.192 403.938C306.454 384.505 324.178 347.461 350.78 328.578L335.776 315.95C333.565 317.044 331.043 317.338 328.64 316.782C326.236 316.226 324.1 314.855 322.594 312.9C321.088 310.946 320.306 308.531 320.381 306.065C320.456 303.599 321.383 301.235 323.005 299.376C324.627 297.517 326.843 296.278 329.276 295.869C331.709 295.46 334.208 295.907 336.348 297.134C338.489 298.36 340.138 300.291 341.015 302.597C341.892 304.903 341.942 307.441 341.158 309.78L358.058 324.004C360.809 322.489 363.67 321.181 366.617 320.093C394.994 309.68 456.679 307.914 487.696 319.443L499.092 306.296C497.913 304.146 497.516 301.653 497.967 299.243C498.418 296.833 499.689 294.653 501.566 293.074C503.442 291.495 505.807 290.615 508.259 290.583C510.711 290.551 513.099 291.369 515.016 292.898C516.933 294.427 518.261 296.572 518.775 298.97C519.289 301.368 518.957 303.87 517.835 306.05C516.714 308.231 514.871 309.955 512.621 310.931C510.372 311.907 507.854 312.074 505.495 311.403L495.46 322.981C498.58 324.627 501.326 326.901 503.526 329.658C515.266 345.047 532.721 400.115 509.697 412.94C491.799 420.635 448.072 419.983 443.148 419.983C436 419.983 415.516 434.276 414 439L410.751 419.984Z" fill="white"/>
</g>
<path d="M405.343 390.856C412.349 390.856 418.028 385.177 418.028 378.171C418.028 371.166 412.349 365.486 405.343 365.486C398.337 365.486 392.658 371.166 392.658 378.171C392.658 385.177 398.337 390.856 405.343 390.856Z" fill="#EE0033"/>
<path d="M487.794 390.856C494.8 390.856 500.479 385.177 500.479 378.171C500.479 371.166 494.8 365.486 487.794 365.486C480.788 365.486 475.109 371.166 475.109 378.171C475.109 385.177 480.788 390.856 487.794 390.856Z" fill="#EE0033"/>
<path d="M183.662 567.104H659.882C664.65 567.104 669.223 568.998 672.594 572.369C675.966 575.741 677.86 580.314 677.86 585.082V585.497H165.684V585.082C165.684 580.314 167.578 575.741 170.949 572.369C174.321 568.998 178.894 567.104 183.662 567.104V567.104Z" fill="#2A2B58"/>
<g filter="url(#filter1_d_5206_23869)">
<path d="M397.895 155.253C433.865 155.253 463.024 126.094 463.024 90.1248C463.024 54.1552 433.865 24.9961 397.895 24.9961C361.926 24.9961 332.767 54.1552 332.767 90.1248C332.767 126.094 361.926 155.253 397.895 155.253Z" fill="white"/>
</g>
<path d="M426.913 64.3184H357.271V115.905H426.913V64.3184Z" fill="#5477E9"/>
<path d="M429.233 64.3828V115.905H434.28V109.605H431.656V104.565H435.29V94.2274H431.656V87.6742H437.51V76.3386H431.656V72.0543H437.51L438.52 64.3864L429.233 64.3828Z" fill="#5477E9"/>
<g filter="url(#filter2_d_5206_23869)">
<path d="M392.086 104.954C400.278 104.954 406.918 98.3137 406.918 90.1225C406.918 81.9313 400.278 75.291 392.086 75.291C383.895 75.291 377.255 81.9313 377.255 90.1225C377.255 98.3137 383.895 104.954 392.086 104.954Z" fill="white"/>
</g>
<path d="M390.693 95.4456L384.256 90.4232C383.964 90.1901 383.773 89.8536 383.723 89.4835C383.673 89.1134 383.767 88.7381 383.986 88.4357C384.091 88.2878 384.225 88.1628 384.38 88.0681C384.534 87.9735 384.706 87.9113 384.886 87.8852C385.065 87.8592 385.248 87.8698 385.423 87.9166C385.599 87.9633 385.763 88.0451 385.905 88.157L391.101 92.2103L397.781 85.0485C397.921 84.8957 398.091 84.773 398.28 84.6878C398.468 84.6027 398.673 84.5568 398.88 84.553C399.087 84.5492 399.293 84.5876 399.485 84.6658C399.677 84.7441 399.851 84.8605 399.996 85.0081C400.295 85.3122 400.466 85.7198 400.473 86.1465C400.481 86.5731 400.324 86.9863 400.035 87.3003L392.726 95.1318C392.627 95.2393 392.512 95.3322 392.387 95.4078C392.152 95.6092 391.855 95.7229 391.546 95.7297C391.237 95.7364 390.935 95.6357 390.692 95.4447L390.693 95.4456Z" fill="#2252F1"/>
<g filter="url(#filter3_d_5206_23869)">
<path d="M482.081 253.239H463.923C459.87 253.239 455.983 251.629 453.117 248.763C450.251 245.897 448.641 242.01 448.641 237.957V196.606C448.641 192.553 450.251 188.666 453.117 185.8C455.983 182.934 459.87 181.324 463.923 181.324H671.576C675.63 181.324 679.516 182.934 682.382 185.8C685.248 188.666 686.858 192.553 686.858 196.606V237.957C686.858 242.01 685.248 245.897 682.382 248.763C679.516 251.629 675.63 253.239 671.576 253.239H507.251L482.081 275.06V253.239Z" fill="white"/>
</g>
<path d="M664.835 193.912H463.473C460.743 193.912 458.529 196.126 458.529 198.856C458.529 201.587 460.743 203.8 463.473 203.8H664.835C667.565 203.8 669.779 201.587 669.779 198.856C669.779 196.126 667.565 193.912 664.835 193.912Z" fill="#EE0033" fill-opacity="0.1"/>
<path d="M568.649 214.588H463.473C460.743 214.588 458.529 216.801 458.529 219.532C458.529 222.263 460.743 224.476 463.473 224.476H568.649C571.379 224.476 573.593 222.263 573.593 219.532C573.593 216.801 571.379 214.588 568.649 214.588Z" fill="#EE0033" fill-opacity="0.1"/>
<path d="M581.234 235.264H463.473C460.743 235.264 458.529 237.477 458.529 240.208C458.529 242.938 460.743 245.152 463.473 245.152H581.234C583.964 245.152 586.178 242.938 586.178 240.208C586.178 237.477 583.964 235.264 581.234 235.264Z" fill="#EE0033" fill-opacity="0.1"/>
<g filter="url(#filter4_d_5206_23869)">
<path d="M684.339 351.303H709.509V373.125L684.339 351.303ZM557.131 351.303C553.078 351.303 549.191 349.693 546.325 346.827C543.459 343.962 541.849 340.075 541.849 336.022V294.671C541.849 290.618 543.459 286.731 546.325 283.865C549.191 280.999 553.078 279.389 557.131 279.389H764.784C768.837 279.389 772.724 280.999 775.59 283.865C778.456 286.731 780.066 290.618 780.066 294.671V336.022C780.066 340.075 778.456 343.962 775.59 346.827C772.724 349.693 768.837 351.303 764.784 351.303H557.131Z" fill="white"/>
</g>
<path d="M758.048 291.977H556.686C553.956 291.977 551.742 294.19 551.742 296.921C551.742 299.651 553.956 301.865 556.686 301.865H758.048C760.778 301.865 762.992 299.651 762.992 296.921C762.992 294.19 760.778 291.977 758.048 291.977Z" fill="#E2EAFF"/>
<path d="M661.862 312.652H556.686C553.956 312.652 551.742 314.866 551.742 317.596C551.742 320.327 553.956 322.541 556.686 322.541H661.862C664.592 322.541 666.806 320.327 666.806 317.596C666.806 314.866 664.592 312.652 661.862 312.652Z" fill="#E2EAFF"/>
<path d="M674.447 333.328H556.686C553.956 333.328 551.742 335.542 551.742 338.272C551.742 341.003 553.956 343.216 556.686 343.216H674.447C677.177 343.216 679.391 341.003 679.391 338.272C679.391 335.542 677.177 333.328 674.447 333.328Z" fill="#E2EAFF"/>
<path d="M741.863 388.922C741.088 393.557 733.739 400.642 733.739 400.642C733.739 400.642 725.062 406.043 718.026 400.971C710.991 395.899 707.558 393.664 703.942 388.749C700.24 383.719 702.56 383.926 702.56 383.926C703.078 380.998 718.667 389.748 718.871 387.251C718.941 386.368 715.463 384.743 714.327 383.301C713.191 381.858 714.232 381.329 715.369 380.874C716.505 380.419 716.155 381.002 718.872 381.482L734.263 386.601C741.602 387.898 742.638 384.287 741.863 388.922Z" fill="#F1B7B7"/>
<path d="M790.015 601.167C793.651 599.374 793.982 599.757 798.04 597.297C801.879 594.866 805.565 592.203 809.077 589.322L815.888 583.783C815.888 583.783 833.426 577.031 834.277 580.714L837.082 592.865C837.618 595.189 837.21 597.631 835.946 599.654C834.683 601.677 832.668 603.115 830.344 603.652L798.041 610.339L790.014 610.339C785.288 610.481 781.036 605.593 790.015 601.167Z" fill="#2A2B58"/>
<path d="M684.806 585.671C694.789 584.93 708.611 581.026 708.611 581.026L717.001 578.441C717.001 578.441 735.792 578.751 735.2 582.484L733.25 594.801C732.877 597.156 731.583 599.268 729.654 600.67C727.724 602.072 725.317 602.65 722.961 602.278L684.165 597.032C679.261 596.255 674.822 586.411 684.806 585.671Z" fill="#2A2B58"/>
<path d="M767.218 384.195C767.218 384.195 788.332 392.276 794.187 401.025C800.042 409.773 803.619 427.691 802.426 432.141L768.057 510.846L735.197 581.519L717.775 578.802L740.665 493.916L767.218 384.195Z" fill="#5655D2"/>
<g filter="url(#filter5_d_5206_23869)">
<path d="M763.356 380.069C763.356 380.069 784.193 370.216 793.394 376.046C802.595 381.875 805.618 386.564 807.941 400.561C810.263 414.557 818.451 493.609 818.451 493.609L834.513 579.699L816.094 584.951L766.297 419.4L763.356 380.069Z" fill="#5655D2"/>
</g>
<path d="M723.539 306.593L723.615 306.533C728.702 302.559 731.863 309.842 736.589 311.144C741.314 312.445 742.518 311.74 742.518 311.74C745.576 315.654 743.931 322.05 738.846 326.022L738.77 326.082C733.919 329.872 724.362 328.775 724.218 328.591C724.612 326.184 724.83 323.752 724.871 321.313C725.104 315.946 718.452 310.567 723.539 306.593Z" fill="#FFC8C8"/>
<path d="M723.578 325.113C723.399 317.89 732.724 308.963 742.435 309.467C752.147 309.971 758.309 310.681 764.923 320.492C771.536 330.303 782.739 344.583 782.739 344.583C785.798 348.497 795.352 371.157 795.352 377.491C795.352 377.491 768.924 397.212 763.853 399.637C760.657 397.652 752.071 374.847 749.014 370.933C749.014 370.933 729.516 354.795 726.547 344.584C723.578 334.372 723.756 332.336 723.578 325.113Z" fill="#FE7062"/>
<g filter="url(#filter6_d_5206_23869)">
<path d="M745.354 393.063C744.598 397.674 736.224 402.278 736.224 402.278C736.224 402.278 726.481 407.351 719.471 402.325C712.46 397.299 711.258 397.883 707.646 393.008C703.95 388.017 706.257 388.216 706.257 388.216C706.763 385.302 722.291 393.955 722.486 391.472C722.571 390.362 719.107 390.31 718.378 388.562C717.556 386.596 719.567 383.105 722.274 383.575L740.338 386.299C747.64 387.566 746.11 388.452 745.354 393.063Z" fill="#FFC8C8"/>
</g>
<path d="M723.468 391.65L723.469 391.649C724.1 390.296 723.514 388.688 722.161 388.057L694.649 375.228C693.296 374.597 691.688 375.182 691.057 376.535L691.057 376.536C690.426 377.889 691.011 379.497 692.364 380.128L719.876 392.957C721.229 393.588 722.837 393.003 723.468 391.65Z" fill="black"/>
<g filter="url(#filter7_d_5206_23869)">
<path d="M696.285 286.926C704.989 280.586 717.362 282.745 723.92 291.749C730.478 300.752 728.738 313.191 720.034 319.531C711.33 325.871 700.159 320.449 693.601 311.446C687.043 302.442 687.58 293.267 696.285 286.926Z" fill="#FFC8C8"/>
</g>
<path d="M684.71 293.403C684.71 288.784 689.073 282.308 693.532 279.367C697.193 276.059 701.404 273.417 705.975 271.559C707.828 271.058 709.789 271.128 711.602 271.759C717.066 269.812 727.736 277.371 731.179 281.296C735.052 285.711 734.595 299.787 730.127 304.879C729.791 305.261 728.949 306.041 728.949 306.041C725.496 305.053 722.37 303.159 719.893 300.558C718.445 298.794 717.134 296.922 715.971 294.959C712.49 297.551 708.623 299.581 704.513 300.975C703.139 301.296 701.706 301.262 700.349 300.876C698.933 308.374 696.483 316.18 693.196 316.18C687.797 316.177 684.71 299.556 684.71 293.403Z" fill="#5655D2"/>
<path d="M721.412 306.388C718.305 305.727 708.453 299.743 709.81 293.36C711.167 286.978 716.027 289.412 718.927 292.669C721.828 295.926 724.286 306.999 721.412 306.388Z" fill="#FFC8C8"/>
<g filter="url(#filter8_d_5206_23869)">
<path d="M731.729 385.046L755.506 360.581L737.555 337.605C735.352 334.785 734.359 331.206 734.796 327.654C735.232 324.103 737.061 320.87 739.88 318.667L740.179 318.434C742.998 316.231 746.578 315.239 750.129 315.675C753.681 316.111 756.914 317.94 759.117 320.76L780.175 347.714C786.024 355.972 787.177 359.555 786.032 361.905C786.175 365.53 784.953 369.078 782.608 371.847L742.859 398.374L731.729 385.046Z" fill="#FE7062"/>
</g>
<g filter="url(#filter9_d_5206_23869)">
<path d="M275.692 155.258H121.076C112.636 155.258 105.794 162.1 105.794 170.54V264.029C105.794 272.469 112.636 279.311 121.076 279.311H275.692C284.132 279.311 290.974 272.469 290.974 264.029V170.54C290.974 162.1 284.132 155.258 275.692 155.258Z" fill="white"/>
</g>
<path d="M265.804 180.877C265.804 177.153 262.785 174.135 259.062 174.135C255.338 174.135 252.32 177.153 252.32 180.877V253.69C252.32 257.414 255.338 260.432 259.062 260.432C262.785 260.432 265.804 257.414 265.804 253.69V180.877Z" fill="#F0F4FF"/>
<path d="M136.357 180.877C136.357 177.153 133.339 174.135 129.615 174.135C125.892 174.135 122.873 177.153 122.873 180.877V253.69C122.873 257.414 125.892 260.432 129.615 260.432C133.339 260.432 136.357 257.414 136.357 253.69V180.877Z" fill="#F0F4FF"/>
<path d="M175.911 180.877C175.911 177.153 172.892 174.135 169.169 174.135C165.445 174.135 162.427 177.153 162.427 180.877V253.69C162.427 257.414 165.445 260.432 169.169 260.432C172.892 260.432 175.911 257.414 175.911 253.69V180.877Z" fill="#F0F4FF"/>
<path d="M220.857 180.877C220.857 177.153 217.839 174.135 214.115 174.135C210.392 174.135 207.373 177.153 207.373 180.877V253.69C207.373 257.414 210.392 260.432 214.115 260.432C217.839 260.432 220.857 257.414 220.857 253.69V180.877Z" fill="#F0F4FF"/>
<path d="M265.804 202.451C265.804 198.727 262.785 195.709 259.062 195.709C255.338 195.709 252.32 198.727 252.32 202.451V253.69C252.32 257.414 255.338 260.432 259.062 260.432C262.785 260.432 265.804 257.414 265.804 253.69V202.451Z" fill="#5477E9"/>
<path d="M136.357 234.814C136.357 231.091 133.339 228.072 129.615 228.072C125.892 228.072 122.873 231.091 122.873 234.814V253.692C122.873 257.415 125.892 260.434 129.615 260.434C133.339 260.434 136.357 257.415 136.357 253.692V234.814Z" fill="#5477E9"/>
<path d="M175.911 206.049C175.911 202.325 172.892 199.307 169.169 199.307C165.445 199.307 162.427 202.325 162.427 206.049V253.692C162.427 257.416 165.445 260.434 169.169 260.434C172.892 260.434 175.911 257.416 175.911 253.692V206.049Z" fill="#5477E9"/>
<path d="M220.857 216.836C220.857 213.112 217.839 210.094 214.115 210.094C210.392 210.094 207.373 213.112 207.373 216.836V253.692C207.373 257.416 210.392 260.434 214.115 260.434C217.839 260.434 220.857 257.416 220.857 253.692V216.836Z" fill="#5477E9"/>
<g filter="url(#filter10_d_5206_23869)">
<path d="M116.581 155.258H280.187C283.048 155.258 285.792 156.394 287.815 158.417C289.838 160.44 290.974 163.184 290.974 166.045H105.794C105.794 163.184 106.93 160.44 108.953 158.417C110.976 156.394 113.72 155.258 116.581 155.258V155.258Z" fill="#5477E9"/>
</g>
<path d="M193.344 551.689C242.494 551.689 282.338 511.643 282.338 462.245C282.338 412.846 242.494 372.801 193.344 372.801C144.193 372.801 104.349 412.846 104.349 462.245C104.349 511.643 144.193 551.689 193.344 551.689Z" fill="#2A2B58"/>
<path d="M193.344 544.497C238.522 544.497 275.147 507.671 275.147 462.245C275.147 416.818 238.522 379.992 193.344 379.992C148.165 379.992 111.541 416.818 111.541 462.245C111.541 507.671 148.165 544.497 193.344 544.497Z" fill="#F56685"/>
<path d="M191.369 459.269L191.444 459.268C196.461 459.18 195.016 465.18 197.341 468.198C199.665 471.217 200.742 471.342 200.742 471.342C200.81 475.207 196.797 478.404 191.78 478.492L191.704 478.493C186.923 478.576 181.502 473.424 181.499 473.243C182.869 471.933 184.143 470.525 185.309 469.031C187.965 465.807 186.351 459.356 191.369 459.269Z" fill="#FFC8C8"/>
<g filter="url(#filter11_d_5206_23869)">
<path d="M206.249 452.096C205.376 460.403 197.702 466.406 189.11 465.503C180.518 464.601 174.258 457.133 175.131 448.825C176.004 440.517 184.932 436.904 193.525 437.807C202.118 438.71 207.122 443.785 206.249 452.096Z" fill="#FFC8C8"/>
</g>
<path d="M171.917 442.825C171.625 434.802 180.884 424.84 187.692 424.358C187.801 424.316 187.906 424.278 188.007 424.243C189.45 423.853 190.978 423.909 192.39 424.402C196.636 422.878 204.937 428.759 207.615 431.812C210.627 435.243 210.27 446.183 206.798 450.138C206.537 450.435 205.883 451.042 205.883 451.042C205.067 448.658 203.79 446.459 202.124 444.569C201.225 443.547 199.572 441.783 197.781 439.694C192.927 443.7 182.756 447.891 179.779 448.737C179.461 448.831 179.13 448.876 178.798 448.871C178.184 450.768 177.636 452.026 177.636 452.026C177.636 452.026 172.218 451.103 171.917 442.825Z" fill="#2D2D57"/>
<path d="M176.387 441.118H170.87C170.868 438.509 171.392 435.926 172.409 433.523C173.427 431.121 174.918 428.948 176.794 427.134C180.629 423.419 185.758 421.342 191.096 421.342C196.435 421.342 201.564 423.419 205.398 427.134C207.274 428.947 208.766 431.121 209.784 433.523C210.801 435.926 211.325 438.509 211.322 441.118H205.806C205.806 439.221 205.424 437.343 204.683 435.597C203.941 433.85 202.856 432.271 201.491 430.953C198.715 428.236 194.981 426.721 191.096 426.735C187.24 426.696 183.525 428.189 180.767 430.885C178.01 433.582 176.435 437.262 176.387 441.118Z" fill="#0D0E17"/>
<g filter="url(#filter12_d_5206_23869)">
<path d="M191.527 473.061L191.735 473.017C193.955 472.658 194.872 469.62 198.834 469.568C203.504 471.516 211.757 474.076 212.354 477.767L207.177 516.636L179.317 517.902L170.961 481.626C170.352 477.856 178.129 473.732 183.616 470.808C183.623 470.807 184.501 470.477 184.724 470.431C187.799 469.804 189.386 473.407 191.527 473.061Z" fill="white"/>
</g>
<path d="M189.147 474.471H194.039L193.471 478.663H189.777L189.147 474.471Z" fill="#0D0E17"/>
<g filter="url(#filter13_d_5206_23869)">
<path d="M173.369 440.234H175.96V456.306H173.369C171.462 456.306 169.633 455.548 168.284 454.199C166.936 452.851 166.178 451.021 166.178 449.114V447.426C166.178 445.519 166.936 443.689 168.284 442.341C169.633 440.992 171.462 440.234 173.369 440.234V440.234Z" fill="#0D0E17"/>
</g>
<g filter="url(#filter14_d_5206_23869)">
<path d="M183.843 466.93L191.58 473.096L188.734 480.235L182.864 472.8L183.843 466.93Z" fill="white"/>
</g>
<g filter="url(#filter15_d_5206_23869)">
<path d="M205.308 440.234H207.899C209.806 440.234 211.636 440.992 212.984 442.341C214.333 443.689 215.091 445.519 215.091 447.426V449.114C215.091 451.021 214.333 452.851 212.984 454.199C211.636 455.548 209.806 456.306 207.899 456.306H205.308V440.234Z" fill="#0D0E17"/>
</g>
<g filter="url(#filter16_d_5206_23869)">
<path d="M199.104 466.93L191.591 473.086L194.213 480.235L200.082 472.8L199.104 466.93Z" fill="white"/>
</g>
<path d="M189.846 479.361H193.34V496.361L188.38 499.787L189.846 479.361Z" fill="#0B0C13"/>
<path d="M193.34 502.713L190.733 506.961L187.929 504.563L188.378 500.956L193.34 497.53V502.713Z" fill="#0B0C13"/>
<g filter="url(#filter17_d_5206_23869)">
<path d="M198.908 518.026L214.218 502.45L210.001 494.007C210.001 494.007 211.13 485.917 211.506 481.503C211.881 477.089 211.506 476.336 211.506 476.336L229.139 494.994C232.791 500.089 233.509 502.299 232.794 503.749C232.882 505.991 232.117 508.183 230.655 509.885L205.853 526.246L198.908 518.026Z" fill="white"/>
</g>
<g filter="url(#filter18_d_5206_23869)">
<path d="M173.357 482.498C173.733 486.915 174.095 495.448 174.095 495.448L170.544 503.342L185.954 519.021L179.008 527.244L154.207 510.884C152.744 509.182 151.98 506.99 152.067 504.747C151.353 503.297 152.067 501.088 155.722 495.993L172.724 477.842C172.724 477.842 172.981 478.081 173.357 482.498Z" fill="white"/>
</g>
<path d="M172.265 446.009C172.414 448.519 173.142 450.96 174.392 453.141C175.641 455.322 177.379 457.185 179.469 458.583" stroke="#0D0E17"/>
<path d="M183.164 458.146L180.485 457.117C179.67 456.804 178.756 457.212 178.443 458.027C178.13 458.842 178.537 459.757 179.352 460.07L182.031 461.098C182.846 461.411 183.761 461.004 184.074 460.189C184.387 459.373 183.98 458.459 183.164 458.146Z" fill="#0D0E17"/>
<path d="M218.514 533.709H165.477C163.987 533.709 162.78 534.916 162.78 536.406C162.78 537.895 163.987 539.103 165.477 539.103H218.514C220.003 539.103 221.211 537.895 221.211 536.406C221.211 534.916 220.003 533.709 218.514 533.709Z" fill="#2A2B58"/>
<path d="M151.646 533.025L148.621 492.655L153.496 489.232H229.608L235.087 495.075L234.033 531.557L262.481 465.675L270.311 445.795L193.999 392.578L154.277 403.448C154.277 403.448 113.188 457.869 113.188 459.883C113.188 461.897 122.97 485.204 122.97 485.808C122.97 486.412 151.646 533.025 151.646 533.025Z" fill="url(#paint0_linear_5206_23869)"/>
<path d="M228.402 486.965H155.588C152.113 486.965 149.296 489.782 149.296 493.257V527.417C149.296 530.892 152.113 533.709 155.588 533.709H228.402C231.877 533.709 234.695 530.892 234.695 527.417V493.257C234.695 489.782 231.877 486.965 228.402 486.965Z" fill="#2A2B58"/>
<g filter="url(#filter19_d_5206_23869)">
<path d="M224.701 472.976H222.268C220.599 472.976 218.998 472.313 217.818 471.133C216.638 469.953 215.975 468.353 215.975 466.684V460.505C215.975 458.837 216.638 457.236 217.818 456.056C218.998 454.876 220.599 454.213 222.268 454.213H264.847C266.516 454.213 268.116 454.876 269.296 456.056C270.476 457.236 271.139 458.837 271.139 460.505V466.683C271.139 468.352 270.476 469.952 269.296 471.132C268.116 472.312 266.516 472.975 264.847 472.975H231.268L224.701 478.669V472.976Z" fill="white"/>
</g>
<path d="M266.874 458.451H222.048C221.663 458.451 221.35 458.764 221.35 459.15V459.151C221.35 459.536 221.663 459.849 222.048 459.849H266.874C267.259 459.849 267.572 459.536 267.572 459.151V459.15C267.572 458.764 267.259 458.451 266.874 458.451Z" fill="#E2EAFF"/>
<path d="M250.672 462.67H222.048C221.663 462.67 221.35 462.983 221.35 463.368V463.369C221.35 463.755 221.663 464.068 222.048 464.068H250.672C251.058 464.068 251.371 463.755 251.371 463.369V463.368C251.371 462.983 251.058 462.67 250.672 462.67Z" fill="#E2EAFF"/>
<path d="M253.955 466.889H222.048C221.663 466.889 221.35 467.201 221.35 467.587V467.588C221.35 467.974 221.663 468.287 222.048 468.287H253.955C254.341 468.287 254.654 467.974 254.654 467.588V467.587C254.654 467.201 254.341 466.889 253.955 466.889Z" fill="#E2EAFF"/>
<g filter="url(#filter20_d_5206_23869)">
<path d="M165.285 419.613C166.239 419.613 167.154 419.992 167.828 420.666C168.502 421.34 168.881 422.255 168.881 423.209V427.793C168.881 428.747 168.502 429.661 167.828 430.336C167.154 431.01 166.239 431.389 165.285 431.389H150.154C149.2 431.389 148.285 431.01 147.611 430.336C146.937 429.661 146.558 428.747 146.558 427.793V423.209C146.558 422.255 146.937 421.34 147.611 420.666C148.285 419.992 149.2 419.613 150.154 419.613H165.285ZM165.124 431.389V435.045L159.179 431.389H165.124Z" fill="white"/>
</g>
<g filter="url(#filter21_d_5206_23869)">
<path d="M114.687 468.084C123.375 468.084 130.418 460.84 130.418 451.903C130.418 442.967 123.375 435.723 114.687 435.723C105.999 435.723 98.9556 442.967 98.9556 451.903C98.9556 460.84 105.999 468.084 114.687 468.084Z" fill="white"/>
</g>
<path d="M114.564 443.811C113.129 443.811 111.754 444.382 110.739 445.396C109.725 446.411 109.154 447.787 109.153 449.221V451.828C109.124 452.478 108.949 453.113 108.639 453.685L107.602 455.407C107.447 455.634 107.349 455.896 107.315 456.169C107.282 456.442 107.314 456.72 107.409 456.978C107.504 457.237 107.66 457.468 107.863 457.655C108.065 457.841 108.31 457.976 108.575 458.049C112.458 459.347 116.658 459.347 120.541 458.049C120.797 457.963 121.031 457.821 121.225 457.632C121.419 457.444 121.568 457.215 121.661 456.961C121.755 456.708 121.79 456.436 121.765 456.167C121.739 455.898 121.654 455.638 121.515 455.407L120.477 453.684C120.175 453.11 120.002 452.476 119.972 451.827V449.22C119.968 447.787 119.397 446.414 118.383 445.4C117.37 444.387 115.997 443.815 114.564 443.811V443.811Z" stroke="#5655D2" stroke-width="1.5" stroke-miterlimit="10" stroke-linecap="round"/>
<path d="M116.231 444.068C115.141 443.757 113.986 443.757 112.896 444.068C113.027 443.733 113.257 443.445 113.554 443.243C113.852 443.04 114.204 442.932 114.563 442.932C114.923 442.932 115.275 443.04 115.573 443.243C115.87 443.445 116.1 443.733 116.231 444.068V444.068Z" stroke="#5655D2" stroke-width="1.5" stroke-miterlimit="10" stroke-linecap="round" stroke-linejoin="round"/>
<path opacity="0.4" d="M117.27 458.373C117.27 459.091 116.985 459.779 116.477 460.286C115.97 460.793 115.282 461.078 114.564 461.078C113.847 461.078 113.159 460.793 112.651 460.286C112.144 459.779 111.859 459.091 111.859 458.373" stroke="#5554D2" stroke-width="1.5" stroke-miterlimit="10"/>
<path d="M448.5 384L457.593 394.5H439.407L448.5 384Z" fill="#EE0033"/>
<defs>
<filter id="filter0_d_5206_23869" x="305.111" y="287.582" width="221.869" height="160.418" filterUnits="userSpaceOnUse" color-interpolation-filters="sRGB">
<feFlood flood-opacity="0" result="BackgroundImageFix"/>
<feColorMatrix in="SourceAlpha" type="matrix" values="0 0 0 0 0 0 0 0 0 0 0 0 0 0 0 0 0 0 127 0" result="hardAlpha"/>
<feOffset dy="3"/>
<feGaussianBlur stdDeviation="3"/>
<feColorMatrix type="matrix" values="0 0 0 0 0 0 0 0 0 0 0 0 0 0 0 0 0 0 0.161 0"/>
<feBlend mode="normal" in2="BackgroundImageFix" result="effect1_dropShadow_5206_23869"/>
<feBlend mode="normal" in="SourceGraphic" in2="effect1_dropShadow_5206_23869" result="shape"/>
</filter>
<filter id="filter1_d_5206_23869" x="308.767" y="3.99609" width="178.257" height="178.258" filterUnits="userSpaceOnUse" color-interpolation-filters="sRGB">
<feFlood flood-opacity="0" result="BackgroundImageFix"/>
<feColorMatrix in="SourceAlpha" type="matrix" values="0 0 0 0 0 0 0 0 0 0 0 0 0 0 0 0 0 0 127 0" result="hardAlpha"/>
<feOffset dy="3"/>
<feGaussianBlur stdDeviation="12"/>
<feColorMatrix type="matrix" values="0 0 0 0 0 0 0 0 0 0 0 0 0 0 0 0 0 0 0.161 0"/>
<feBlend mode="normal" in2="BackgroundImageFix" result="effect1_dropShadow_5206_23869"/>
<feBlend mode="normal" in="SourceGraphic" in2="effect1_dropShadow_5206_23869" result="shape"/>
</filter>
<filter id="filter2_d_5206_23869" x="374.255" y="75.291" width="35.663" height="35.6621" filterUnits="userSpaceOnUse" color-interpolation-filters="sRGB">
<feFlood flood-opacity="0" result="BackgroundImageFix"/>
<feColorMatrix in="SourceAlpha" type="matrix" values="0 0 0 0 0 0 0 0 0 0 0 0 0 0 0 0 0 0 127 0" result="hardAlpha"/>
<feOffset dy="3"/>
<feGaussianBlur stdDeviation="1.5"/>
<feColorMatrix type="matrix" values="0 0 0 0 0.933333 0 0 0 0 0 0 0 0 0 0.2 0 0 0 0.078 0"/>
<feBlend mode="normal" in2="BackgroundImageFix" result="effect1_dropShadow_5206_23869"/>
<feBlend mode="normal" in="SourceGraphic" in2="effect1_dropShadow_5206_23869" result="shape"/>
</filter>
<filter id="filter3_d_5206_23869" x="432.641" y="168.324" width="270.218" height="125.736" filterUnits="userSpaceOnUse" color-interpolation-filters="sRGB">
<feFlood flood-opacity="0" result="BackgroundImageFix"/>
<feColorMatrix in="SourceAlpha" type="matrix" values="0 0 0 0 0 0 0 0 0 0 0 0 0 0 0 0 0 0 127 0" result="hardAlpha"/>
<feOffset dy="3"/>
<feGaussianBlur stdDeviation="8"/>
<feColorMatrix type="matrix" values="0 0 0 0 0.337255 0 0 0 0 0.333333 0 0 0 0 0.823529 0 0 0 0.188 0"/>
<feBlend mode="normal" in2="BackgroundImageFix" result="effect1_dropShadow_5206_23869"/>
<feBlend mode="normal" in="SourceGraphic" in2="effect1_dropShadow_5206_23869" result="shape"/>
</filter>
<filter id="filter4_d_5206_23869" x="525.849" y="266.389" width="270.217" height="125.736" filterUnits="userSpaceOnUse" color-interpolation-filters="sRGB">
<feFlood flood-opacity="0" result="BackgroundImageFix"/>
<feColorMatrix in="SourceAlpha" type="matrix" values="0 0 0 0 0 0 0 0 0 0 0 0 0 0 0 0 0 0 127 0" result="hardAlpha"/>
<feOffset dy="3"/>
<feGaussianBlur stdDeviation="8"/>
<feColorMatrix type="matrix" values="0 0 0 0 0.337255 0 0 0 0 0.333333 0 0 0 0 0.823529 0 0 0 0.188 0"/>
<feBlend mode="normal" in2="BackgroundImageFix" result="effect1_dropShadow_5206_23869"/>
<feBlend mode="normal" in="SourceGraphic" in2="effect1_dropShadow_5206_23869" result="shape"/>
</filter>
<filter id="filter5_d_5206_23869" x="757.356" y="371.201" width="83.157" height="222.75" filterUnits="userSpaceOnUse" color-interpolation-filters="sRGB">
<feFlood flood-opacity="0" result="BackgroundImageFix"/>
<feColorMatrix in="SourceAlpha" type="matrix" values="0 0 0 0 0 0 0 0 0 0 0 0 0 0 0 0 0 0 127 0" result="hardAlpha"/>
<feOffset dy="3"/>
<feGaussianBlur stdDeviation="3"/>
<feColorMatrix type="matrix" values="0 0 0 0 0 0 0 0 0 0 0 0 0 0 0 0 0 0 0.161 0"/>
<feBlend mode="normal" in2="BackgroundImageFix" result="effect1_dropShadow_5206_23869"/>
<feBlend mode="normal" in="SourceGraphic" in2="effect1_dropShadow_5206_23869" result="shape"/>
</filter>
<filter id="filter6_d_5206_23869" x="699.546" y="377.531" width="52.4789" height="33.0156" filterUnits="userSpaceOnUse" color-interpolation-filters="sRGB">
<feFlood flood-opacity="0" result="BackgroundImageFix"/>
<feColorMatrix in="SourceAlpha" type="matrix" values="0 0 0 0 0 0 0 0 0 0 0 0 0 0 0 0 0 0 127 0" result="hardAlpha"/>
<feOffset/>
<feGaussianBlur stdDeviation="3"/>
<feColorMatrix type="matrix" values="0 0 0 0 0 0 0 0 0 0 0 0 0 0 0 0 0 0 0.161 0"/>
<feBlend mode="normal" in2="BackgroundImageFix" result="effect1_dropShadow_5206_23869"/>
<feBlend mode="normal" in="SourceGraphic" in2="effect1_dropShadow_5206_23869" result="shape"/>
</filter>
<filter id="filter7_d_5206_23869" x="687.156" y="282.289" width="42.7382" height="42.9922" filterUnits="userSpaceOnUse" color-interpolation-filters="sRGB">
<feFlood flood-opacity="0" result="BackgroundImageFix"/>
<feColorMatrix in="SourceAlpha" type="matrix" values="0 0 0 0 0 0 0 0 0 0 0 0 0 0 0 0 0 0 127 0" result="hardAlpha"/>
<feOffset dy="1"/>
<feGaussianBlur stdDeviation="1"/>
<feColorMatrix type="matrix" values="0 0 0 0 0 0 0 0 0 0 0 0 0 0 0 0 0 0 0.161 0"/>
<feBlend mode="normal" in2="BackgroundImageFix" result="effect1_dropShadow_5206_23869"/>
<feBlend mode="normal" in="SourceGraphic" in2="effect1_dropShadow_5206_23869" result="shape"/>
</filter>
<filter id="filter8_d_5206_23869" x="729.729" y="314.574" width="58.7" height="86.7988" filterUnits="userSpaceOnUse" color-interpolation-filters="sRGB">
<feFlood flood-opacity="0" result="BackgroundImageFix"/>
<feColorMatrix in="SourceAlpha" type="matrix" values="0 0 0 0 0 0 0 0 0 0 0 0 0 0 0 0 0 0 127 0" result="hardAlpha"/>
<feOffset dy="1"/>
<feGaussianBlur stdDeviation="1"/>
<feColorMatrix type="matrix" values="0 0 0 0 0 0 0 0 0 0 0 0 0 0 0 0 0 0 0.161 0"/>
<feBlend mode="normal" in2="BackgroundImageFix" result="effect1_dropShadow_5206_23869"/>
<feBlend mode="normal" in="SourceGraphic" in2="effect1_dropShadow_5206_23869" result="shape"/>
</filter>
<filter id="filter9_d_5206_23869" x="99.7937" y="152.258" width="197.18" height="136.053" filterUnits="userSpaceOnUse" color-interpolation-filters="sRGB">
<feFlood flood-opacity="0" result="BackgroundImageFix"/>
<feColorMatrix in="SourceAlpha" type="matrix" values="0 0 0 0 0 0 0 0 0 0 0 0 0 0 0 0 0 0 127 0" result="hardAlpha"/>
<feOffset dy="3"/>
<feGaussianBlur stdDeviation="3"/>
<feColorMatrix type="matrix" values="0 0 0 0 0.509804 0 0 0 0 0.611765 0 0 0 0 0.945098 0 0 0 0.18 0"/>
<feBlend mode="normal" in2="BackgroundImageFix" result="effect1_dropShadow_5206_23869"/>
<feBlend mode="normal" in="SourceGraphic" in2="effect1_dropShadow_5206_23869" result="shape"/>
</filter>
<filter id="filter10_d_5206_23869" x="99.7937" y="152.258" width="197.18" height="22.7871" filterUnits="userSpaceOnUse" color-interpolation-filters="sRGB">
<feFlood flood-opacity="0" result="BackgroundImageFix"/>
<feColorMatrix in="SourceAlpha" type="matrix" values="0 0 0 0 0 0 0 0 0 0 0 0 0 0 0 0 0 0 127 0" result="hardAlpha"/>
<feOffset dy="3"/>
<feGaussianBlur stdDeviation="3"/>
<feColorMatrix type="matrix" values="0 0 0 0 0.509804 0 0 0 0 0.611765 0 0 0 0 0.945098 0 0 0 0.18 0"/>
<feBlend mode="normal" in2="BackgroundImageFix" result="effect1_dropShadow_5206_23869"/>
<feBlend mode="normal" in="SourceGraphic" in2="effect1_dropShadow_5206_23869" result="shape"/>
</filter>
<filter id="filter11_d_5206_23869" x="173.05" y="436.672" width="35.297" height="31.9219" filterUnits="userSpaceOnUse" color-interpolation-filters="sRGB">
<feFlood flood-opacity="0" result="BackgroundImageFix"/>
<feColorMatrix in="SourceAlpha" type="matrix" values="0 0 0 0 0 0 0 0 0 0 0 0 0 0 0 0 0 0 127 0" result="hardAlpha"/>
<feOffset dy="1"/>
<feGaussianBlur stdDeviation="1"/>
<feColorMatrix type="matrix" values="0 0 0 0 0 0 0 0 0 0 0 0 0 0 0 0 0 0 0.161 0"/>
<feBlend mode="normal" in2="BackgroundImageFix" result="effect1_dropShadow_5206_23869"/>
<feBlend mode="normal" in="SourceGraphic" in2="effect1_dropShadow_5206_23869" result="shape"/>
</filter>
<filter id="filter12_d_5206_23869" x="168.928" y="468.568" width="45.4259" height="52.334" filterUnits="userSpaceOnUse" color-interpolation-filters="sRGB">
<feFlood flood-opacity="0" result="BackgroundImageFix"/>
<feColorMatrix in="SourceAlpha" type="matrix" values="0 0 0 0 0 0 0 0 0 0 0 0 0 0 0 0 0 0 127 0" result="hardAlpha"/>
<feOffset dy="1"/>
<feGaussianBlur stdDeviation="1"/>
<feColorMatrix type="matrix" values="0 0 0 0 0 0 0 0 0 0 0 0 0 0 0 0 0 0 0.161 0"/>
<feBlend mode="normal" in2="BackgroundImageFix" result="effect1_dropShadow_5206_23869"/>
<feBlend mode="normal" in="SourceGraphic" in2="effect1_dropShadow_5206_23869" result="shape"/>
</filter>
<filter id="filter13_d_5206_23869" x="163.178" y="437.234" width="15.7822" height="22.0703" filterUnits="userSpaceOnUse" color-interpolation-filters="sRGB">
<feFlood flood-opacity="0" result="BackgroundImageFix"/>
<feColorMatrix in="SourceAlpha" type="matrix" values="0 0 0 0 0 0 0 0 0 0 0 0 0 0 0 0 0 0 127 0" result="hardAlpha"/>
<feOffset/>
<feGaussianBlur stdDeviation="1.5"/>
<feColorMatrix type="matrix" values="0 0 0 0 0 0 0 0 0 0 0 0 0 0 0 0 0 0 0.161 0"/>
<feBlend mode="normal" in2="BackgroundImageFix" result="effect1_dropShadow_5206_23869"/>
<feBlend mode="normal" in="SourceGraphic" in2="effect1_dropShadow_5206_23869" result="shape"/>
</filter>
<filter id="filter14_d_5206_23869" x="176.864" y="463.93" width="20.7161" height="25.3047" filterUnits="userSpaceOnUse" color-interpolation-filters="sRGB">
<feFlood flood-opacity="0" result="BackgroundImageFix"/>
<feColorMatrix in="SourceAlpha" type="matrix" values="0 0 0 0 0 0 0 0 0 0 0 0 0 0 0 0 0 0 127 0" result="hardAlpha"/>
<feOffset dy="3"/>
<feGaussianBlur stdDeviation="3"/>
<feColorMatrix type="matrix" values="0 0 0 0 0 0 0 0 0 0 0 0 0 0 0 0 0 0 0.161 0"/>
<feBlend mode="normal" in2="BackgroundImageFix" result="effect1_dropShadow_5206_23869"/>
<feBlend mode="normal" in="SourceGraphic" in2="effect1_dropShadow_5206_23869" result="shape"/>
</filter>
<filter id="filter15_d_5206_23869" x="202.308" y="437.234" width="15.7822" height="22.0703" filterUnits="userSpaceOnUse" color-interpolation-filters="sRGB">
<feFlood flood-opacity="0" result="BackgroundImageFix"/>
<feColorMatrix in="SourceAlpha" type="matrix" values="0 0 0 0 0 0 0 0 0 0 0 0 0 0 0 0 0 0 127 0" result="hardAlpha"/>
<feOffset/>
<feGaussianBlur stdDeviation="1.5"/>
<feColorMatrix type="matrix" values="0 0 0 0 0 0 0 0 0 0 0 0 0 0 0 0 0 0 0.161 0"/>
<feBlend mode="normal" in2="BackgroundImageFix" result="effect1_dropShadow_5206_23869"/>
<feBlend mode="normal" in="SourceGraphic" in2="effect1_dropShadow_5206_23869" result="shape"/>
</filter>
<filter id="filter16_d_5206_23869" x="185.591" y="463.93" width="20.4913" height="25.3047" filterUnits="userSpaceOnUse" color-interpolation-filters="sRGB">
<feFlood flood-opacity="0" result="BackgroundImageFix"/>
<feColorMatrix in="SourceAlpha" type="matrix" values="0 0 0 0 0 0 0 0 0 0 0 0 0 0 0 0 0 0 127 0" result="hardAlpha"/>
<feOffset dy="3"/>
<feGaussianBlur stdDeviation="3"/>
<feColorMatrix type="matrix" values="0 0 0 0 0 0 0 0 0 0 0 0 0 0 0 0 0 0 0.161 0"/>
<feBlend mode="normal" in2="BackgroundImageFix" result="effect1_dropShadow_5206_23869"/>
<feBlend mode="normal" in="SourceGraphic" in2="effect1_dropShadow_5206_23869" result="shape"/>
</filter>
<filter id="filter17_d_5206_23869" x="196.908" y="475.336" width="38.1339" height="53.9102" filterUnits="userSpaceOnUse" color-interpolation-filters="sRGB">
<feFlood flood-opacity="0" result="BackgroundImageFix"/>
<feColorMatrix in="SourceAlpha" type="matrix" values="0 0 0 0 0 0 0 0 0 0 0 0 0 0 0 0 0 0 127 0" result="hardAlpha"/>
<feOffset dy="1"/>
<feGaussianBlur stdDeviation="1"/>
<feColorMatrix type="matrix" values="0 0 0 0 0 0 0 0 0 0 0 0 0 0 0 0 0 0 0.161 0"/>
<feBlend mode="normal" in2="BackgroundImageFix" result="effect1_dropShadow_5206_23869"/>
<feBlend mode="normal" in="SourceGraphic" in2="effect1_dropShadow_5206_23869" result="shape"/>
</filter>
<filter id="filter18_d_5206_23869" x="149.819" y="476.842" width="38.1353" height="53.4023" filterUnits="userSpaceOnUse" color-interpolation-filters="sRGB">
<feFlood flood-opacity="0" result="BackgroundImageFix"/>
<feColorMatrix in="SourceAlpha" type="matrix" values="0 0 0 0 0 0 0 0 0 0 0 0 0 0 0 0 0 0 127 0" result="hardAlpha"/>
<feOffset dy="1"/>
<feGaussianBlur stdDeviation="1"/>
<feColorMatrix type="matrix" values="0 0 0 0 0 0 0 0 0 0 0 0 0 0 0 0 0 0 0.161 0"/>
<feBlend mode="normal" in2="BackgroundImageFix" result="effect1_dropShadow_5206_23869"/>
<feBlend mode="normal" in="SourceGraphic" in2="effect1_dropShadow_5206_23869" result="shape"/>
</filter>
<filter id="filter19_d_5206_23869" x="199.975" y="441.213" width="87.1639" height="56.457" filterUnits="userSpaceOnUse" color-interpolation-filters="sRGB">
<feFlood flood-opacity="0" result="BackgroundImageFix"/>
<feColorMatrix in="SourceAlpha" type="matrix" values="0 0 0 0 0 0 0 0 0 0 0 0 0 0 0 0 0 0 127 0" result="hardAlpha"/>
<feOffset dy="3"/>
<feGaussianBlur stdDeviation="8"/>
<feColorMatrix type="matrix" values="0 0 0 0 0.337255 0 0 0 0 0.333333 0 0 0 0 0.823529 0 0 0 0.188 0"/>
<feBlend mode="normal" in2="BackgroundImageFix" result="effect1_dropShadow_5206_23869"/>
<feBlend mode="normal" in="SourceGraphic" in2="effect1_dropShadow_5206_23869" result="shape"/>
</filter>
<filter id="filter20_d_5206_23869" x="130.558" y="406.613" width="54.3232" height="47.4316" filterUnits="userSpaceOnUse" color-interpolation-filters="sRGB">
<feFlood flood-opacity="0" result="BackgroundImageFix"/>
<feColorMatrix in="SourceAlpha" type="matrix" values="0 0 0 0 0 0 0 0 0 0 0 0 0 0 0 0 0 0 127 0" result="hardAlpha"/>
<feOffset dy="3"/>
<feGaussianBlur stdDeviation="8"/>
<feColorMatrix type="matrix" values="0 0 0 0 0.337255 0 0 0 0 0.333333 0 0 0 0 0.823529 0 0 0 0.188 0"/>
<feBlend mode="normal" in2="BackgroundImageFix" result="effect1_dropShadow_5206_23869"/>
<feBlend mode="normal" in="SourceGraphic" in2="effect1_dropShadow_5206_23869" result="shape"/>
</filter>
<filter id="filter21_d_5206_23869" x="92.9556" y="432.723" width="43.4626" height="44.3613" filterUnits="userSpaceOnUse" color-interpolation-filters="sRGB">
<feFlood flood-opacity="0" result="BackgroundImageFix"/>
<feColorMatrix in="SourceAlpha" type="matrix" values="0 0 0 0 0 0 0 0 0 0 0 0 0 0 0 0 0 0 127 0" result="hardAlpha"/>
<feOffset dy="3"/>
<feGaussianBlur stdDeviation="3"/>
<feColorMatrix type="matrix" values="0 0 0 0 0 0 0 0 0 0 0 0 0 0 0 0 0 0 0.161 0"/>
<feBlend mode="normal" in2="BackgroundImageFix" result="effect1_dropShadow_5206_23869"/>
<feBlend mode="normal" in="SourceGraphic" in2="effect1_dropShadow_5206_23869" result="shape"/>
</filter>
<linearGradient id="paint0_linear_5206_23869" x1="187.193" y1="466.594" x2="190.836" y2="533.075" gradientUnits="userSpaceOnUse">
<stop stop-color="#FFE600" stop-opacity="0"/>
<stop offset="1" stop-color="#FFE500" stop-opacity="0.722"/>
</linearGradient>
</defs>
</svg>
