<svg width="282" height="97" viewBox="0 0 282 97" fill="none" xmlns="http://www.w3.org/2000/svg">
<path d="M57.2887 80.3084C57.2887 80.3084 6.23627 84.3007 1.00153 66.3344C-4.23321 48.3681 11.4718 17.7576 38.307 7.77489C65.1422 -2.20784 110.104 -3.38348 122.743 13.8154C131.755 25.7932 140.414 65.0036 122.743 74.9853C108.998 80.9747 85.9428 80.3084 82.1626 80.3084C76.5655 80.3084 57.2887 96.2795 57.2887 96.2795V80.3084Z" fill="#EE0033"/>
<path d="M64.7072 72.1473C64.7072 72.1473 23.3972 75.3589 20.3267 64.8221C17.2561 54.2852 29.0948 32.4012 44.8341 26.5465C60.5735 20.6917 99.0726 20.8254 106.485 30.9133C111.771 37.9385 119.634 63.077 109.263 68.9307C101.203 72.4433 81.5125 72.1463 79.2961 72.1463C76.0127 72.1463 64.7081 81.5137 64.7081 81.5137L64.7072 72.1473Z" fill="white"/>
<path d="M28.8251 25.1559C31.471 25.1559 33.6159 22.9752 33.6159 20.285C33.6159 17.5949 31.471 15.4141 28.8251 15.4141C26.1791 15.4141 24.0342 17.5949 24.0342 20.285C24.0342 22.9752 26.1791 25.1559 28.8251 25.1559Z" fill="white"/>
<path d="M108.684 22.7614C111.33 22.7614 113.475 20.5806 113.475 17.8905C113.475 15.2003 111.33 13.0195 108.684 13.0195C106.038 13.0195 103.893 15.2003 103.893 17.8905C103.893 20.5806 106.038 22.7614 108.684 22.7614Z" fill="white"/>
<path d="M45.7807 32.4247L30.2754 19.1973L27.9101 22.0632L43.4154 35.2906L45.7807 32.4247Z" fill="white"/>
<path d="M96.0029 35.8764L109.282 20.3457L106.505 17.8913L93.2257 33.422L96.0029 35.8764Z" fill="white"/>
<path d="M55.9764 54.3858C59.5048 54.3858 62.3652 51.4776 62.3652 47.8901C62.3652 44.3027 59.5048 41.3945 55.9764 41.3945C52.448 41.3945 49.5876 44.3027 49.5876 47.8901C49.5876 51.4776 52.448 54.3858 55.9764 54.3858Z" fill="#EE0033"/>
<path d="M97.5036 54.3858C101.032 54.3858 103.892 51.4776 103.892 47.8901C103.892 44.3027 101.032 41.3945 97.5036 41.3945C93.9751 41.3945 91.1148 44.3027 91.1148 47.8901C91.1148 51.4776 93.9751 54.3858 97.5036 54.3858Z" fill="#EE0033"/>
<path d="M82.7421 52.7696C83.1233 53.0669 83.1944 53.6208 82.8572 53.9671C82.1963 54.6458 81.4181 55.2032 80.5578 55.6109C79.4332 56.1439 78.1995 56.4065 76.9553 56.3777C75.7111 56.3489 74.4909 56.0295 73.3921 55.445C72.5517 54.9979 71.8001 54.4051 71.1713 53.6965C70.8505 53.335 70.9472 52.7849 71.3417 52.5056C71.7362 52.2262 72.2784 52.3248 72.6102 52.6763C73.0736 53.1671 73.615 53.5808 74.2143 53.8996C75.072 54.3559 76.0245 54.6052 76.9958 54.6277C77.9671 54.6502 78.9302 54.4452 79.8081 54.0291C80.4215 53.7384 80.9815 53.3502 81.4671 52.8814C81.8148 52.5456 82.361 52.4723 82.7421 52.7696Z" fill="#EE0033"/>
<path d="M157.305 76.9105C157.652 77.0838 157.852 77.3571 157.905 77.7305C157.972 78.1038 157.879 78.4438 157.625 78.7505C157.452 78.9905 157.225 79.1238 156.945 79.1505C156.679 79.1771 156.405 79.1238 156.125 78.9905C155.805 78.8438 155.465 78.7305 155.105 78.6505C154.759 78.5705 154.392 78.5305 154.005 78.5305C153.285 78.5305 152.639 78.6438 152.065 78.8705C151.505 79.0971 151.025 79.4238 150.625 79.8505C150.225 80.2638 149.919 80.7571 149.705 81.3305C149.505 81.9038 149.405 82.5371 149.405 83.2305C149.405 84.0438 149.519 84.7505 149.745 85.3505C149.985 85.9505 150.312 86.4505 150.725 86.8505C151.139 87.2505 151.625 87.5505 152.185 87.7505C152.745 87.9371 153.352 88.0305 154.005 88.0305C154.365 88.0305 154.725 87.9971 155.085 87.9305C155.445 87.8638 155.792 87.7438 156.125 87.5705C156.405 87.4371 156.679 87.3905 156.945 87.4305C157.225 87.4705 157.459 87.6105 157.645 87.8505C157.912 88.1838 158.005 88.5305 157.925 88.8905C157.859 89.2371 157.659 89.4905 157.325 89.6505C156.979 89.8238 156.619 89.9705 156.245 90.0905C155.885 90.1971 155.519 90.2771 155.145 90.3305C154.772 90.3971 154.392 90.4305 154.005 90.4305C153.045 90.4305 152.132 90.2771 151.265 89.9705C150.412 89.6638 149.645 89.2105 148.965 88.6105C148.299 88.0105 147.772 87.2638 147.385 86.3705C146.999 85.4638 146.805 84.4171 146.805 83.2305C146.805 82.2038 146.979 81.2571 147.325 80.3905C147.685 79.5238 148.185 78.7771 148.825 78.1505C149.479 77.5105 150.245 77.0171 151.125 76.6705C152.005 76.3105 152.965 76.1305 154.005 76.1305C154.592 76.1305 155.165 76.1971 155.725 76.3305C156.285 76.4638 156.812 76.6571 157.305 76.9105ZM165.464 79.3305C166.424 79.3305 167.151 79.5371 167.644 79.9505C168.151 80.3638 168.498 80.9171 168.684 81.6105C168.871 82.2905 168.964 83.0505 168.964 83.8905V89.0105C168.964 89.3571 168.851 89.6505 168.624 89.8905C168.398 90.1171 168.111 90.2305 167.764 90.2305C167.418 90.2305 167.131 90.1171 166.904 89.8905C166.678 89.6505 166.564 89.3571 166.564 89.0105V83.8905C166.564 83.4505 166.511 83.0571 166.404 82.7105C166.298 82.3505 166.104 82.0638 165.824 81.8505C165.544 81.6371 165.144 81.5305 164.624 81.5305C164.118 81.5305 163.684 81.6371 163.324 81.8505C162.964 82.0638 162.691 82.3505 162.504 82.7105C162.331 83.0571 162.244 83.4505 162.244 83.8905V89.0105C162.244 89.3571 162.131 89.6505 161.904 89.8905C161.678 90.1171 161.391 90.2305 161.044 90.2305C160.698 90.2305 160.411 90.1171 160.184 89.8905C159.958 89.6505 159.844 89.3571 159.844 89.0105V76.6505C159.844 76.3038 159.958 76.0171 160.184 75.7905C160.411 75.5505 160.698 75.4305 161.044 75.4305C161.391 75.4305 161.678 75.5505 161.904 75.7905C162.131 76.0171 162.244 76.3038 162.244 76.6505V81.6105L161.944 81.5505C162.064 81.3238 162.231 81.0838 162.444 80.8305C162.658 80.5638 162.918 80.3171 163.224 80.0905C163.531 79.8638 163.871 79.6838 164.244 79.5505C164.618 79.4038 165.024 79.3305 165.464 79.3305ZM180.323 79.3305C180.67 79.3305 180.957 79.4438 181.183 79.6705C181.41 79.8971 181.523 80.1905 181.523 80.5505V89.0105C181.523 89.3571 181.41 89.6505 181.183 89.8905C180.957 90.1171 180.67 90.2305 180.323 90.2305C179.977 90.2305 179.69 90.1171 179.463 89.8905C179.237 89.6505 179.123 89.3571 179.123 89.0105V88.0305L179.563 88.2105C179.563 88.3838 179.47 88.5971 179.283 88.8505C179.097 89.0905 178.843 89.3305 178.523 89.5705C178.203 89.8105 177.823 90.0171 177.383 90.1905C176.957 90.3505 176.49 90.4305 175.983 90.4305C175.063 90.4305 174.23 90.1971 173.483 89.7305C172.737 89.2505 172.143 88.5971 171.703 87.7705C171.277 86.9305 171.063 85.9705 171.063 84.8905C171.063 83.7971 171.277 82.8371 171.703 82.0105C172.143 81.1705 172.73 80.5171 173.463 80.0505C174.197 79.5705 175.01 79.3305 175.903 79.3305C176.477 79.3305 177.003 79.4171 177.483 79.5905C177.963 79.7638 178.377 79.9838 178.723 80.2505C179.083 80.5171 179.357 80.7905 179.543 81.0705C179.743 81.3371 179.843 81.5638 179.843 81.7505L179.123 82.0105V80.5505C179.123 80.2038 179.237 79.9171 179.463 79.6905C179.69 79.4505 179.977 79.3305 180.323 79.3305ZM176.283 88.2305C176.87 88.2305 177.383 88.0838 177.823 87.7905C178.263 87.4971 178.603 87.0971 178.843 86.5905C179.097 86.0838 179.223 85.5171 179.223 84.8905C179.223 84.2505 179.097 83.6771 178.843 83.1705C178.603 82.6638 178.263 82.2638 177.823 81.9705C177.383 81.6771 176.87 81.5305 176.283 81.5305C175.71 81.5305 175.203 81.6771 174.763 81.9705C174.323 82.2638 173.977 82.6638 173.723 83.1705C173.483 83.6771 173.363 84.2505 173.363 84.8905C173.363 85.5171 173.483 86.0838 173.723 86.5905C173.977 87.0971 174.323 87.4971 174.763 87.7905C175.203 88.0838 175.71 88.2305 176.283 88.2305ZM184.242 79.7305H188.982C189.302 79.7305 189.568 79.8371 189.782 80.0505C189.995 80.2638 190.102 80.5305 190.102 80.8505C190.102 81.1571 189.995 81.4171 189.782 81.6305C189.568 81.8305 189.302 81.9305 188.982 81.9305H184.242C183.922 81.9305 183.655 81.8238 183.442 81.6105C183.228 81.3971 183.122 81.1305 183.122 80.8105C183.122 80.5038 183.228 80.2505 183.442 80.0505C183.655 79.8371 183.922 79.7305 184.242 79.7305ZM186.382 77.2305C186.728 77.2305 187.008 77.3505 187.222 77.5905C187.448 77.8171 187.562 78.1038 187.562 78.4505V87.3505C187.562 87.5371 187.595 87.6905 187.662 87.8105C187.742 87.9305 187.842 88.0171 187.962 88.0705C188.095 88.1238 188.235 88.1505 188.382 88.1505C188.542 88.1505 188.688 88.1238 188.822 88.0705C188.955 88.0038 189.108 87.9705 189.282 87.9705C189.468 87.9705 189.635 88.0571 189.782 88.2305C189.942 88.4038 190.022 88.6438 190.022 88.9505C190.022 89.3238 189.815 89.6305 189.402 89.8705C189.002 90.1105 188.568 90.2305 188.102 90.2305C187.822 90.2305 187.508 90.2105 187.162 90.1705C186.828 90.1171 186.508 90.0038 186.202 89.8305C185.908 89.6438 185.662 89.3638 185.462 88.9905C185.262 88.6171 185.162 88.1038 185.162 87.4505V78.4505C185.162 78.1038 185.275 77.8171 185.502 77.5905C185.742 77.3505 186.035 77.2305 186.382 77.2305ZM203.891 76.2305C204.584 76.2305 205.231 76.4305 205.831 76.8305C206.444 77.2305 206.937 77.7705 207.311 78.4505C207.684 79.1305 207.871 79.8905 207.871 80.7305C207.871 81.5571 207.684 82.3105 207.311 82.9905C206.937 83.6705 206.444 84.2171 205.831 84.6305C205.231 85.0305 204.584 85.2305 203.891 85.2305H200.211L200.411 84.8705V89.0105C200.411 89.3571 200.304 89.6505 200.091 89.8905C199.877 90.1171 199.597 90.2305 199.251 90.2305C198.917 90.2305 198.644 90.1171 198.431 89.8905C198.217 89.6505 198.111 89.3571 198.111 89.0105V77.4505C198.111 77.1038 198.224 76.8171 198.451 76.5905C198.691 76.3505 198.984 76.2305 199.331 76.2305H203.891ZM203.891 82.9505C204.144 82.9505 204.391 82.8438 204.631 82.6305C204.871 82.4171 205.071 82.1438 205.231 81.8105C205.391 81.4638 205.471 81.1038 205.471 80.7305C205.471 80.3438 205.391 79.9838 205.231 79.6505C205.071 79.3171 204.871 79.0505 204.631 78.8505C204.391 78.6371 204.144 78.5305 203.891 78.5305H200.171L200.411 78.1705V83.2705L200.191 82.9505H203.891ZM212.562 89.0105C212.562 89.3571 212.442 89.6505 212.202 89.8905C211.975 90.1171 211.688 90.2305 211.342 90.2305C211.008 90.2305 210.728 90.1171 210.502 89.8905C210.275 89.6505 210.162 89.3571 210.162 89.0105V76.6505C210.162 76.3038 210.275 76.0171 210.502 75.7905C210.742 75.5505 211.035 75.4305 211.382 75.4305C211.728 75.4305 212.008 75.5505 212.222 75.7905C212.448 76.0171 212.562 76.3038 212.562 76.6505V89.0105ZM224.112 79.3305C224.459 79.3305 224.746 79.4438 224.972 79.6705C225.199 79.8971 225.312 80.1905 225.312 80.5505V89.0105C225.312 89.3571 225.199 89.6505 224.972 89.8905C224.746 90.1171 224.459 90.2305 224.112 90.2305C223.766 90.2305 223.479 90.1171 223.252 89.8905C223.026 89.6505 222.912 89.3571 222.912 89.0105V88.0305L223.352 88.2105C223.352 88.3838 223.259 88.5971 223.072 88.8505C222.886 89.0905 222.632 89.3305 222.312 89.5705C221.992 89.8105 221.612 90.0171 221.172 90.1905C220.746 90.3505 220.279 90.4305 219.772 90.4305C218.852 90.4305 218.019 90.1971 217.272 89.7305C216.526 89.2505 215.932 88.5971 215.492 87.7705C215.066 86.9305 214.852 85.9705 214.852 84.8905C214.852 83.7971 215.066 82.8371 215.492 82.0105C215.932 81.1705 216.519 80.5171 217.252 80.0505C217.986 79.5705 218.799 79.3305 219.692 79.3305C220.266 79.3305 220.792 79.4171 221.272 79.5905C221.752 79.7638 222.166 79.9838 222.512 80.2505C222.872 80.5171 223.146 80.7905 223.332 81.0705C223.532 81.3371 223.632 81.5638 223.632 81.7505L222.912 82.0105V80.5505C222.912 80.2038 223.026 79.9171 223.252 79.6905C223.479 79.4505 223.766 79.3305 224.112 79.3305ZM220.072 88.2305C220.659 88.2305 221.172 88.0838 221.612 87.7905C222.052 87.4971 222.392 87.0971 222.632 86.5905C222.886 86.0838 223.012 85.5171 223.012 84.8905C223.012 84.2505 222.886 83.6771 222.632 83.1705C222.392 82.6638 222.052 82.2638 221.612 81.9705C221.172 81.6771 220.659 81.5305 220.072 81.5305C219.499 81.5305 218.992 81.6771 218.552 81.9705C218.112 82.2638 217.766 82.6638 217.512 83.1705C217.272 83.6771 217.152 84.2505 217.152 84.8905C217.152 85.5171 217.272 86.0838 217.512 86.5905C217.766 87.0971 218.112 87.4971 218.552 87.7905C218.992 88.0838 219.499 88.2305 220.072 88.2305ZM228.031 79.7305H232.771C233.091 79.7305 233.357 79.8371 233.571 80.0505C233.784 80.2638 233.891 80.5305 233.891 80.8505C233.891 81.1571 233.784 81.4171 233.571 81.6305C233.357 81.8305 233.091 81.9305 232.771 81.9305H228.031C227.711 81.9305 227.444 81.8238 227.231 81.6105C227.017 81.3971 226.911 81.1305 226.911 80.8105C226.911 80.5038 227.017 80.2505 227.231 80.0505C227.444 79.8371 227.711 79.7305 228.031 79.7305ZM230.171 77.2305C230.517 77.2305 230.797 77.3505 231.011 77.5905C231.237 77.8171 231.351 78.1038 231.351 78.4505V87.3505C231.351 87.5371 231.384 87.6905 231.451 87.8105C231.531 87.9305 231.631 88.0171 231.751 88.0705C231.884 88.1238 232.024 88.1505 232.171 88.1505C232.331 88.1505 232.477 88.1238 232.611 88.0705C232.744 88.0038 232.897 87.9705 233.071 87.9705C233.257 87.9705 233.424 88.0571 233.571 88.2305C233.731 88.4038 233.811 88.6438 233.811 88.9505C233.811 89.3238 233.604 89.6305 233.191 89.8705C232.791 90.1105 232.357 90.2305 231.891 90.2305C231.611 90.2305 231.297 90.2105 230.951 90.1705C230.617 90.1171 230.297 90.0038 229.991 89.8305C229.697 89.6438 229.451 89.3638 229.251 88.9905C229.051 88.6171 228.951 88.1038 228.951 87.4505V78.4505C228.951 78.1038 229.064 77.8171 229.291 77.5905C229.531 77.3505 229.824 77.2305 230.171 77.2305ZM241.087 75.4305C241.38 75.4305 241.667 75.4705 241.947 75.5505C242.227 75.6305 242.46 75.7638 242.647 75.9505C242.833 76.1238 242.927 76.3571 242.927 76.6505C242.927 76.9838 242.827 77.2505 242.627 77.4505C242.44 77.6371 242.22 77.7305 241.967 77.7305C241.847 77.7305 241.667 77.7038 241.427 77.6505C241.187 77.5838 240.953 77.5505 240.727 77.5505C240.393 77.5505 240.133 77.6238 239.947 77.7705C239.773 77.9171 239.653 78.0905 239.587 78.2905C239.52 78.4771 239.487 78.6438 239.487 78.7905V89.0105C239.487 89.3571 239.373 89.6505 239.147 89.8905C238.92 90.1171 238.633 90.2305 238.287 90.2305C237.94 90.2305 237.653 90.1171 237.427 89.8905C237.2 89.6505 237.087 89.3571 237.087 89.0105V78.8105C237.087 77.8638 237.42 77.0638 238.087 76.4105C238.753 75.7571 239.753 75.4305 241.087 75.4305ZM241.307 79.7305C241.627 79.7305 241.893 79.8371 242.107 80.0505C242.32 80.2505 242.427 80.5105 242.427 80.8305C242.427 81.1505 242.32 81.4171 242.107 81.6305C241.893 81.8305 241.627 81.9305 241.307 81.9305H236.007C235.687 81.9305 235.42 81.8305 235.207 81.6305C234.993 81.4171 234.887 81.1505 234.887 80.8305C234.887 80.5105 234.993 80.2505 235.207 80.0505C235.42 79.8371 235.687 79.7305 236.007 79.7305H241.307ZM254.092 84.8905C254.092 85.9838 253.845 86.9505 253.352 87.7905C252.872 88.6171 252.218 89.2638 251.392 89.7305C250.578 90.1971 249.665 90.4305 248.652 90.4305C247.638 90.4305 246.718 90.1971 245.892 89.7305C245.078 89.2638 244.425 88.6171 243.932 87.7905C243.452 86.9505 243.212 85.9838 243.212 84.8905C243.212 83.7971 243.452 82.8371 243.932 82.0105C244.425 81.1705 245.078 80.5171 245.892 80.0505C246.718 79.5705 247.638 79.3305 248.652 79.3305C249.665 79.3305 250.578 79.5705 251.392 80.0505C252.218 80.5171 252.872 81.1705 253.352 82.0105C253.845 82.8371 254.092 83.7971 254.092 84.8905ZM251.692 84.8905C251.692 84.2105 251.552 83.6238 251.272 83.1305C251.005 82.6238 250.638 82.2305 250.172 81.9505C249.718 81.6705 249.212 81.5305 248.652 81.5305C248.092 81.5305 247.578 81.6705 247.112 81.9505C246.658 82.2305 246.292 82.6238 246.012 83.1305C245.745 83.6238 245.612 84.2105 245.612 84.8905C245.612 85.5571 245.745 86.1438 246.012 86.6505C246.292 87.1438 246.658 87.5305 247.112 87.8105C247.578 88.0905 248.092 88.2305 248.652 88.2305C249.212 88.2305 249.718 88.0905 250.172 87.8105C250.638 87.5305 251.005 87.1438 251.272 86.6505C251.552 86.1438 251.692 85.5571 251.692 84.8905ZM257.392 90.2305C257.045 90.2305 256.759 90.1171 256.532 89.8905C256.305 89.6505 256.192 89.3571 256.192 89.0105V80.7505C256.192 80.4038 256.305 80.1171 256.532 79.8905C256.759 79.6505 257.045 79.5305 257.392 79.5305C257.739 79.5305 258.025 79.6505 258.252 79.8905C258.479 80.1171 258.592 80.4038 258.592 80.7505V82.6305L258.452 81.2905C258.599 80.9705 258.785 80.6905 259.012 80.4505C259.252 80.1971 259.519 79.9905 259.812 79.8305C260.105 79.6571 260.419 79.5305 260.752 79.4505C261.085 79.3705 261.419 79.3305 261.752 79.3305C262.152 79.3305 262.485 79.4438 262.752 79.6705C263.032 79.8971 263.172 80.1638 263.172 80.4705C263.172 80.9105 263.059 81.2305 262.832 81.4305C262.605 81.6171 262.359 81.7105 262.092 81.7105C261.839 81.7105 261.605 81.6638 261.392 81.5705C261.192 81.4771 260.959 81.4305 260.692 81.4305C260.452 81.4305 260.205 81.4905 259.952 81.6105C259.712 81.7171 259.485 81.8905 259.272 82.1305C259.072 82.3705 258.905 82.6705 258.772 83.0305C258.652 83.3771 258.592 83.7905 258.592 84.2705V89.0105C258.592 89.3571 258.479 89.6505 258.252 89.8905C258.025 90.1171 257.739 90.2305 257.392 90.2305ZM270.484 79.3305C271.551 79.3305 272.337 79.5905 272.844 80.1105C273.351 80.6171 273.684 81.2771 273.844 82.0905L273.504 81.9105L273.664 81.5905C273.824 81.2838 274.071 80.9571 274.404 80.6105C274.737 80.2505 275.137 79.9505 275.604 79.7105C276.084 79.4571 276.617 79.3305 277.204 79.3305C278.164 79.3305 278.891 79.5371 279.384 79.9505C279.891 80.3638 280.237 80.9171 280.424 81.6105C280.611 82.2905 280.704 83.0505 280.704 83.8905V89.0105C280.704 89.3571 280.591 89.6505 280.364 89.8905C280.137 90.1171 279.851 90.2305 279.504 90.2305C279.157 90.2305 278.871 90.1171 278.644 89.8905C278.417 89.6505 278.304 89.3571 278.304 89.0105V83.8905C278.304 83.4505 278.251 83.0571 278.144 82.7105C278.037 82.3505 277.844 82.0638 277.564 81.8505C277.284 81.6371 276.884 81.5305 276.364 81.5305C275.857 81.5305 275.424 81.6371 275.064 81.8505C274.704 82.0638 274.431 82.3505 274.244 82.7105C274.071 83.0571 273.984 83.4505 273.984 83.8905V89.0105C273.984 89.3571 273.871 89.6505 273.644 89.8905C273.417 90.1171 273.131 90.2305 272.784 90.2305C272.437 90.2305 272.151 90.1171 271.924 89.8905C271.697 89.6505 271.584 89.3571 271.584 89.0105V83.8905C271.584 83.4505 271.531 83.0571 271.424 82.7105C271.317 82.3505 271.124 82.0638 270.844 81.8505C270.564 81.6371 270.164 81.5305 269.644 81.5305C269.137 81.5305 268.704 81.6371 268.344 81.8505C267.984 82.0638 267.711 82.3505 267.524 82.7105C267.351 83.0571 267.264 83.4505 267.264 83.8905V89.0105C267.264 89.3571 267.151 89.6505 266.924 89.8905C266.697 90.1171 266.411 90.2305 266.064 90.2305C265.717 90.2305 265.431 90.1171 265.204 89.8905C264.977 89.6505 264.864 89.3571 264.864 89.0105V80.7505C264.864 80.4038 264.977 80.1171 265.204 79.8905C265.431 79.6505 265.717 79.5305 266.064 79.5305C266.411 79.5305 266.697 79.6505 266.924 79.8905C267.151 80.1171 267.264 80.4038 267.264 80.7505V81.6105L266.964 81.5505C267.084 81.3238 267.251 81.0838 267.464 80.8305C267.677 80.5638 267.937 80.3171 268.244 80.0905C268.551 79.8638 268.891 79.6838 269.264 79.5505C269.637 79.4038 270.044 79.3305 270.484 79.3305Z" fill="black"/>
<path d="M188.982 48.5042C188.439 49.532 187.873 50.0632 187.682 50.0632C187.491 50.0632 186.922 49.5161 186.382 48.5042L171.746 21.1844C170.623 19.2266 168.984 17.6076 167.006 16.4999C165.027 15.3922 162.783 14.8375 160.511 14.8948H152.911L177.474 56.9802C178.588 58.4972 180.095 59.6874 181.836 60.4249C183.577 61.1624 185.487 61.4197 187.363 61.1696H187.675C190.75 61.1696 195.381 61.1696 197.766 56.9772L211.752 33.3076C211.752 33.3076 207.794 27.0438 211.052 21.1844C214.311 15.3249 223.196 14.4102 223.196 14.4102L214.735 14.8948C212.461 14.8378 210.214 15.3945 208.235 16.5054C206.256 17.6162 204.618 19.2393 203.498 21.2012L188.982 48.5042Z" fill="#EE0033"/>
<path d="M244.019 19.0145C243.875 17.8866 231.904 12.0044 219.462 16.6775C207.019 21.3505 213.136 32.6481 213.762 33.3191C216.242 36.1925 219.377 38.4398 222.907 39.8753C227.399 42.1687 232.759 44.6227 232.759 46.5514C232.691 47.5451 232.317 48.4941 231.688 49.2702C231.058 50.0464 230.203 50.6123 229.238 50.8914C225.218 52.17 209.318 44.9924 208.132 45.1163C206.557 45.2798 203.7 54.6537 203.7 54.6537C207.779 57.3581 212.319 59.3058 217.101 60.4021C225.034 62.4051 236.141 63.3606 240.781 57.4456C240.635 57.2306 237.304 56.3951 237.066 54.6477C237.066 51.5664 240.027 46.3591 240.49 45.8081C241.011 45.2085 241.681 44.7544 242.434 44.4909C243.54 44.1757 245.784 45.3829 245.784 45.3829C244.55 42.4621 241.169 39.5542 241.169 39.5542C235.469 35.12 225.149 32.444 224.097 28.5529C223.045 24.6618 227.604 25.2822 227.604 25.2822L240.513 27.2347C241.946 24.6133 243.121 21.8608 244.02 19.0155L244.019 19.0145Z" fill="#EE0033"/>
<path d="M278.237 19.0145C278.093 17.8866 266.122 12.0044 253.679 16.6775C241.237 21.3505 247.354 32.6482 247.979 33.3191C250.458 36.1918 253.591 38.439 257.119 39.8753C261.611 42.1687 266.971 44.6227 266.971 46.5514C266.903 47.5451 266.529 48.4941 265.899 49.2702C265.269 50.0464 264.414 50.6123 263.45 50.8915C259.43 52.17 243.866 45.3413 242.68 45.4642C241.105 45.6277 237.816 53.176 238.411 54.846C239.006 56.516 246.533 59.3059 251.311 60.4061C259.245 62.4091 270.504 62.8729 275.144 56.958C281.674 49.1431 278.9 43.5285 274.273 39.1449C269.647 34.7612 259.359 32.445 258.307 28.5529C257.255 24.6608 261.814 25.2822 261.814 25.2822L274.722 27.2347C276.156 24.6133 277.33 21.8608 278.23 19.0155L278.237 19.0145Z" fill="#EE0033"/>
</svg>
